<?xml version="1.0" standalone="no"?>
<!DOCTYPE svg PUBLIC "-//W3C//DTD SVG 1.1//EN" "http://www.w3.org/Graphics/SVG/1.1/DTD/svg11.dtd" >
<svg>
<metadata>
Created by FontForge 20110222 at Mon Mar  7 04:41:55 2011
 By www-data
Copyright (c) Typographer Mediengestaltung, 2000. All rights reserved. Added to full character set by Dieter Steffmann.
</metadata>
<defs>
<font id="HoneyScript-Light" horiz-adv-x="234" >
  <font-face 
    font-family="Honey Script"
    font-weight="300"
    font-stretch="normal"
    units-per-em="1000"
    panose-1="2 0 5 6 2 0 0 2 0 3"
    ascent="800"
    descent="-200"
    x-height="358"
    cap-height="648"
    bbox="-263 -404 1139 919"
    underline-thickness="42"
    underline-position="-79"
    unicode-range="U+0020-2122"
  />
    <missing-glyph />
    <glyph glyph-name="space" unicode=" " horiz-adv-x="210" 
 />
    <glyph glyph-name="space" unicode="&#xa0;" horiz-adv-x="210" 
 />
    <glyph glyph-name="exclam" unicode="!" horiz-adv-x="201" 
d="M176 634q-20 26 -38 26q-20 0 -24 -10q-7 -58 -18 -212q-5 -72 -7.5 -118.5t-2.5 -67.5q0 -51 3 -73q5 -33 24 -67q6 -10 20 -2q-4 20 -5.5 51t-1.5 75q0 260 50 398zM148 17q0 18 -7 32q-7 19 -23 19q-7 0 -20 -21q-12 -21 -12 -30q0 -14 11.5 -23.5t25.5 -9.5
q9 0 17 12t8 21z" />
    <glyph glyph-name="quotedbl" unicode="&#x22;" horiz-adv-x="248" 
d="M200 652q1 4 -18 18q-11 -25 -19 -44t-12 -33l-34 -72q-18 -38 -18 -44q0 -12 12 -12q10 0 20 22q10 20 20 39.5t21 39.5q20 43 28 86zM147 666q1 6 -18 18q-11 -28 -18 -48t-11 -34q-52 -88 -52 -102t14 -14q9 0 39 65q43 90 46 115z" />
    <glyph glyph-name="numbersign" unicode="#" horiz-adv-x="454" 
d="M426 498q0 9 -18 9l-100 -17q9 84 9 94q0 21 -10 24q-17 5 -21 -25l-14 -100l-86 -17q5 46 8 71.5t3 30.5q0 8 -15 10q-18 1 -22 -25l-14 -94l-126 -27q-20 -8 -20 -27q0 -18 18 -18q14 0 28 8l94 20l-13 -77l-107 -20q-20 -8 -20 -27q0 -18 18 -18q14 0 28 8l74 17
l-18 -116q2 -8 13 -8q26 0 34 18q1 8 1.5 14.5t-0.5 10.5l13 89l88 15l-15 -111q0 -6 7 -6q22 0 34 24q1 8 1.5 14.5t-0.5 10.5l9 76l114 20q7 1 14 9.5t7 15.5q0 9 -18 9l-111 -18l11 87l101 21q21 4 21 25zM269 444l-13 -85l-88 -15l13 82z" />
    <glyph glyph-name="dollar" unicode="$" horiz-adv-x="266" 
d="M245 133q0 46 -19 64l-113 109q-40 37 -40 117q0 31 11 64q14 44 40 44q41 0 51 -85l2 -32l2 -32q4 -51 19 -51q30 0 30 102q0 47 -22 75q-17 24 -63 48v32t1 32q-1 31 -18 31q-11 -39 -11 -90q-80 -8 -80 -135q0 -86 42 -140q4 -7 79 -73q42 -38 42 -83q0 -25 -15 -44
t-40 -19q-45 0 -87 54q-36 48 -54 41q25 -68 58 -96l53 -34q2 -40 3.5 -59.5l1.5 -19.5q1 -31 22 -26q6 34 6 60q0 18 -3 33l30 12t31 11q41 26 41 90z" />
    <glyph glyph-name="percent" unicode="%" horiz-adv-x="474" 
d="M444 629q0 6 -9.5 13.5t-15.5 7.5q-17 -8 -25 -25q-11 -22 -17 -27q-98 -91 -170 -91q-20 0 -55 16q-10 127 -71 127q-41 0 -65 -93q-16 -65 -16 -126q0 -41 17 -69q21 -32 61 -32q39 0 56 50q4 10 8.5 38t11.5 75q17 -4 37 -5.5t43 -1.5q17 0 46 15q30 16 39 17
q-32 -49 -68 -108t-76 -131q-104 -185 -122 -262q0 -9 6 -17.5t14 -8.5t10 9q12 83 131 293q58 102 105 172t84 108q41 44 41 56zM414 157q0 64 -12 93q-20 45 -73 45q-3 0 -10 1t-10 1q-2 -4 -5 -8t-7 -9q-39 -54 -39 -157q0 -137 76 -137q80 0 80 171zM122 521
q-2 -31 -2 -56q0 -24 1 -43q-5 -25 -17 -44q-15 -25 -35 -25q-32 0 -32 74q0 98 46 186q20 0 22 -23q1 -39 17 -69zM389 171q0 -52 -9 -95q-15 -70 -49 -70q-39 0 -39 96q0 20 3 43.5t8 50.5q14 74 38 74q48 0 48 -99z" />
    <glyph glyph-name="ampersand" unicode="&#x26;" horiz-adv-x="595" 
d="M567 229q-6 13 -84 15l-213 -1q-17 40 -26.5 64t-12.5 34q40 45 61 68t24 27q51 64 51 110q0 47 -34 84q-35 38 -81 38q-45 0 -72 -57q-22 -45 -22 -97q0 -65 30 -156l-93 -108q-45 -63 -45 -129q0 -58 39 -95q40 -38 96 -38q69 0 164 77l62 -66q18 -20 32 -20
q6 0 15.5 4.5t9.5 9.5q-29 13 -42 28q-38 43 -57 63q15 11 61 74q40 55 59 55h69q9 10 9 16zM337 565q0 -46 -69 -122q-39 -44 -51 -53q-25 63 -25 106q0 48 16 90q23 59 60 59q14 0 26.5 -7.5t22 -19t15 -25.5t5.5 -28zM411 211q0 -14 -25 -52q-26 -38 -35 -38
q-20 26 -36 48t-27 41h21q11 1 22 1h22h58zM323 91q0 -14 -49 -44q-55 -34 -105 -34q-34 0 -63 25q-29 26 -29 57q0 143 126 226q24 -65 33 -78q-41 -11 -58 -12q-1 -4 -1.5 -7.5t-0.5 -8.5q10 0 39 -3q25 -3 39 -3q65 -104 69 -118z" />
    <glyph glyph-name="quotesingle" unicode="'" horiz-adv-x="0" 
d="M10 645q0 17 -24 34q-37 -120 -57 -163q1 -16 16 -16q10 0 27 45q38 79 38 100z" />
    <glyph glyph-name="parenleft" unicode="(" horiz-adv-x="217" 
d="M225 -109q-6 6 -17.5 12.5t-17.5 14.5q-20 24 -58 141q-11 35 -22 123q-9 79 -9 127q0 99 35 219q28 94 54 135l24 26q0 3 -4 7t-9.5 7.5t-11.5 6t-10 2.5q-19 0 -39 -53q-6 -17 -12 -35t-11 -36q-48 -110 -48 -304q0 -122 33 -246q41 -152 102 -152q9 0 21 5z" />
    <glyph glyph-name="parenright" unicode=")" horiz-adv-x="175" 
d="M128 249q0 130 -25 254l-36 189q-8 20 -38 20q-20 0 -20 -14q0 -9 15 -36q8 -13 49 -155q22 -75 22 -258q0 -220 -59 -333l-12.5 -12.5t-10.5 -9.5q4 -12 18 -12q38 0 65 97q17 62 22 126q10 46 10 144z" />
    <glyph glyph-name="asterisk" unicode="*" horiz-adv-x="217" 
d="M154 599q-11 6 -30 6q-5 0 -11.5 -0.5t-13.5 -1.5q1 1 4 5l9 12q12 15 12 18q0 4 -12 16q-17 -18 -31 -42q-29 41 -33 41q-5 0 -9 -6q14 -38 21 -50l-36 -12q-24 -8 -24 -16q0 -9 11 -9q4 0 18.5 4t18.5 5q-1 -5 -6 -17.5t-5 -14.5q0 -5 6 -12q19 13 36 46q28 -46 38 -46
q12 0 12 7l-14 20q-15 21 -16 26q31 7 48 7q4 4 7 14z" />
    <glyph glyph-name="plus" unicode="+" horiz-adv-x="378" 
d="M369 164l-4 3q-24 18 -40 18q-15 0 -58 -15q-42 -14 -60 -16q0 6 12 56q6 26 9.5 42.5t4.5 22.5q0 3 2.5 8.5t5.5 11.5l5.5 11t2.5 8q0 11 -14 11q-15 0 -18 -9q-14 -49 -21 -85q-29 81 -82 81q-32 0 -53 -29q-19 -25 -19 -59q0 -38 26 -72q28 -36 66 -36q10 0 21 1.5
t25 3.5q0 -9 1.5 -25.5t1.5 -25.5q-3 -12 -3 -23q0 -15 8 -29q10 -16 25 -16q5 0 6 4q-11 36 -11 62v64q51 14 91 22t70 10zM185 169q0 -23 -32 -23q-37 0 -63.5 24t-26.5 61q0 20 12 37.5t31 17.5q39 0 62 -48q17 -37 17 -69z" />
    <glyph glyph-name="comma" unicode="," horiz-adv-x="154" 
d="M58 33q0 16 -26 28q-10 -21 -16.5 -37t-11.5 -27q-35 -62 -35 -66q0 -14 18 -14q10 0 44 64q27 46 27 52z" />
    <glyph glyph-name="hyphen" unicode="-" horiz-adv-x="293" 
d="M265 210q0 7 -16 4q-10 -2 -17 -2.5t-12 -1.5q-36 -2 -60 -3t-37 -2l-52 -5q-22 -4 -22 -22q0 -7 19 -6q14 2 25 2.5t18 1.5q29 2 58 3l58 2q12 2 25 10.5t13 18.5z" />
    <glyph glyph-name="period" unicode="." horiz-adv-x="126" 
d="M87 29q0 25 -30 25q-11 0 -20.5 -11.5t-9.5 -23.5q0 -28 30 -28t30 38z" />
    <glyph glyph-name="slash" unicode="/" horiz-adv-x="390" 
d="M361 650q-10 -4 -49 -58l-51 -74q-32 -47 -68 -106.5t-77 -132.5q-102 -183 -120 -262q0 -9 5.5 -17.5t13.5 -8.5t10 9q12 83 131 293q58 102 105 172t84 108q41 44 41 56q0 6 -9.5 13.5t-15.5 7.5z" />
    <glyph glyph-name="zero" unicode="0" horiz-adv-x="448" 
d="M385 344q0 39 -15 125q-17 102 -36 109l-73 41q-58 32 -82 32q-88 0 -140 -171q-39 -128 -39 -242q0 -88 17 -133q17 -47 62 -76q47 -29 97 -29q97 0 159 129q50 108 50 215zM346 383q0 -113 -35 -215q-50 -138 -144 -138q-61 0 -91 63q-23 49 -23 116q0 93 36 228
q46 171 113 171q77 0 115 -78q29 -61 29 -147z" />
    <glyph glyph-name="one" unicode="1" horiz-adv-x="168" 
d="M114 577q0 25 -36 25q-14 0 -26 -4q-1 -13 -6 -33.5t-13 -49.5q-16 -51 -16 -78q0 -16 21 -32q3 -39 -12 -173q-8 -72 -12 -121.5t-4 -78.5q0 -53 46 -53q14 0 14 6q-4 20 -5.5 47t-1.5 59q0 72 9 176t26 242q1 10 9 34q7 20 7 34z" />
    <glyph glyph-name="two" unicode="2" horiz-adv-x="402" 
d="M373 17q0 5 -63 13q-31 4 -52.5 5.5t-33.5 1.5q-72 0 -150 -3q43 47 81.5 98.5t73.5 109.5q87 144 87 238q0 64 -60 108q-53 40 -120 40q-35 0 -51 -24q-18 -26 -41 -91q-10 -28 -17.5 -52.5t-12.5 -44.5q-11 -47 -11 -64q0 -35 25 -35q24 0 38 60q1 2 5.5 26.5
t13.5 71.5q12 66 24.5 94.5t45.5 28.5q42 0 70 -24t28 -64q0 -107 -64 -238q-28 -58 -61.5 -110t-74.5 -98q-5 -5 -16 -13t-28 -18q-26 -17 -26 -24q0 -38 45 -38q26 0 95 15q35 7 62.5 10.5t47.5 3.5h29t36 -1q18 0 33 -1t23.5 -1.5t9.5 -1t-9 -0.5q18 0 18 22z" />
    <glyph glyph-name="three" unicode="3" horiz-adv-x="407" 
d="M345 177q0 54 -34 89q-27 27 -83 53q90 97 90 187q0 60 -48 93q-43 29 -104 29q-41 0 -67 -26q-19 -19 -37 -64q-39 -98 -39 -154q0 -15 8 -33q9 -20 24 -20q49 0 49 166q0 52 15 75q19 28 68 28q75 0 75 -92q0 -46 -14 -94q-17 -56 -47 -80q-7 -1 -20 0q-8 1 -13.5 1.5
t-10.5 0.5q-18 0 -33 -15t-15 -33q0 -17 15 -21l97 23q33 0 53 -42q14 -33 14 -71q0 -63 -40 -124q-45 -66 -105 -66q-51 0 -81 27q-10 8 -29 45q-10 19 -17.5 30.5t-12.5 16.5q-4 4 -11 4q-16 -1 -16 -39q0 -22 51 -65q61 -49 123 -49q88 0 144 66q51 63 51 154z" />
    <glyph glyph-name="four" unicode="4" horiz-adv-x="467" 
d="M424 198q0 15 -25 16l-113 3q0 37 33 282q1 5 3 15.5t7 26.5q8 30 8 38q0 15 -27 35q-27 19 -45 21q-17 -2 -39 -33q-8 -12 -15.5 -24t-15.5 -23q-63 -92 -97 -155q-13 -23 -31.5 -53.5t-43.5 -67.5q-35 -53 -35 -65q0 -16 39 -65q11 1 38 6t69 14q58 13 104 10
q1 -7 1.5 -15.5t0.5 -18.5t-0.5 -24t-1.5 -33t-1.5 -32.5t-0.5 -23.5q0 -75 37 -75q27 0 27 7q0 -4 -13 28q-12 31 -10 49q1 5 1 19q0 15 1 41q1 21 2.5 40t4.5 36q18 1 48 0q16 -1 25 -1h15q50 0 50 22zM260 570q2 -23 1 -65.5t-6 -104.5q-9 -107 -12 -186q-15 0 -43 -3
q-14 -1 -25 -1.5t-18 -0.5t-17 -1t-24 -3q-27 -3 -41 -3q-28 0 -28 14q0 16 29 80q33 71 65 112q4 5 19.5 27.5t42.5 62.5q43 64 57 72z" />
    <glyph glyph-name="five" unicode="5" horiz-adv-x="435" 
d="M371 172q0 81 -58 130q-58 50 -138 50q-16 0 -51 -13q-23 -8 -37.5 -12.5t-20.5 -6.5q0 22 6 72.5t17 131.5q16 16 95 27q30 4 118 12q11 2 29 14q19 13 19 23q-6 9 -43 9q-28 0 -122 -9q-135 -14 -139 -23q-11 -23 -12 -68q1 13 1 -5v-65q0 -12 -1.5 -30t-5.5 -42
t-5.5 -42t-1.5 -30t13 -31q13 -18 24 -18q28 19 46.5 30t28.5 16q42 21 84 21q49 0 78 -33q25 -29 25 -82q0 -82 -48 -137q-51 -59 -131 -59q-34 0 -80 34q-47 35 -58 35q-27 0 -27 -18q0 -37 77 -61q61 -21 108 -21q92 0 151 54q59 56 59 147z" />
    <glyph glyph-name="six" unicode="6" horiz-adv-x="423" 
d="M364 207q0 76 -43 129q-46 58 -119 58q-67 0 -143 -78q15 120 52 183q15 27 26 47t18 34q30 51 64 51q38 0 52 -38q7 -20 7 -76q0 -34 5 -46q7 -18 38 -18q17 48 17 80q0 47 -22 78q-12 17 -60 37t-72 20q-78 0 -136 -192q-48 -155 -48 -258q0 -96 46 -154
q49 -64 144 -64q80 -2 130 64q44 61 44 143zM316 223q0 -64 -33 -124q-38 -71 -97 -71q-137 0 -137 151q0 79 37 128q40 55 118 55q55 0 85 -43q27 -39 27 -96z" />
    <glyph glyph-name="seven" unicode="7" horiz-adv-x="340" 
d="M333 633q-26 30 -37 30q-32 0 -77.5 -3t-103.5 -10l-64 -8t-32 -5q-41 -11 -41 -41q0 -23 16 -23l35 14q19 7 35.5 11t31.5 6q34 4 58 6t38 2q40 0 40 -13l-113 -249q-113 -249 -113 -311q0 -22 48 -22q-4 7 -4 21q0 115 234 516q11 19 35 48q14 17 14 31z" />
    <glyph glyph-name="eight" unicode="8" horiz-adv-x="497" 
d="M432 619q0 48 -23 48q-1 -7 -1.5 -13t-1.5 -12q-8 -29 -36 -50q-12 5 -67 52q-49 43 -87 43q-59 0 -105 -61q-43 -56 -43 -118q0 -57 71 -122q-32 -31 -55 -56t-37 -45q-47 -65 -47 -124q0 -76 67 -125q61 -45 139 -45q77 0 141 44q71 50 71 124q0 68 -67 132
q-37 35 -125 90q-1 1 -1 4q0 4 44 37q31 23 62.5 52.5t63.5 66.5q37 41 37 78zM342 562q-6 -14 -81 -81q-75 -66 -85 -66q-24 0 -43 33q-19 29 -19 54q0 33 35 86q42 62 92 62q34 0 54 -20q9 -10 47 -68zM368 184q0 -67 -60 -107q-53 -36 -123 -36q-55 0 -99 26
q-52 31 -52 83q1 79 153 210q183 -84 181 -176z" />
    <glyph glyph-name="nine" unicode="9" horiz-adv-x="408" 
d="M378 619q0 13 -44 21q-11 6 -17 6q-10 0 -10 -40q-103 65 -120 65q-68 0 -131 -105q-56 -95 -56 -168q0 -79 53 -123q48 -39 130 -39q14 0 41 7t41 7q10 0 10 -5q0 -23 -3 -69q-3 -47 -3 -70q1 -106 44 -106q14 0 12 -1q5 2 9 8q-19 54 -19 63q-2 56 1 123t13 148l32 234
q5 36 17 44zM304 553l-28 -249q-11 -14 -50 -25q-34 -8 -57 -8q-124 0 -123 91q0 64 48 159q54 106 111 106q28 0 66 -35q33 -30 33 -39z" />
    <glyph glyph-name="colon" unicode=":" horiz-adv-x="146" 
d="M110 236q0 21 -41 32q-7 0 -11.5 -10t-4.5 -18q0 -12 9 -21t21 -9q27 0 27 26zM99 29q0 27 -28 27q-10 0 -17.5 -8.5t-7.5 -18.5q0 -28 25 -28q28 0 28 28z" />
    <glyph glyph-name="semicolon" unicode=";" horiz-adv-x="182" 
d="M120 224q0 14 -9.5 24.5t-23.5 10.5q-27 -12 -27 -30q0 -28 32 -28q28 0 28 23zM104 18q0 16 -26 27l-12 -24t-11 -24q-14 -26 -35 -41q-19 -13 -19 -28q0 -13 11 -13q12 0 56 54q36 43 36 49z" />
    <glyph glyph-name="less" unicode="&#x3c;" horiz-adv-x="384" 
d="M321 434q-3 11 -12 7q-14 -10 -27 -19t-24 -18q-52 -42 -135 -82q-62 -31 -81 -34q-23 -4 -29 -6q-13 -6 -14 -22q-3 -31 41 -51q43 -13 72.5 -20.5t45.5 -11.5q60 -12 124 -12q36 0 35 12q-1 16 -70 22q-126 10 -201 51q133 49 241 143q39 22 34 41z" />
    <glyph glyph-name="equal" unicode="=" horiz-adv-x="384" 
d="M307 338q0 7 -16 6q-11 -2 -18.5 -2.5t-12.5 -1.5q-55 -2 -94 -3t-63 -2q-17 -1 -30 -2t-23 -3q-23 -6 -23 -24q0 -8 19 -7q73 4 128 5.5t93 2.5q12 2 26 11t14 20zM307 226q0 7 -16 6q-11 -2 -18.5 -2.5t-12.5 -1.5q-55 -2 -94 -3t-63 -2q-17 -1 -30 -2t-23 -3
q-23 -6 -23 -24q0 -8 19 -7q73 4 128 5.5t93 2.5q12 2 26 11t14 20z" />
    <glyph glyph-name="greater" unicode="&#x3e;" horiz-adv-x="384" 
d="M341 235q6 32 -34 59l-80 41q-78 38 -163 47q-33 3 -34 -6q-5 -17 58 -34q142 -41 207 -87q-72 -13 -158 -48q-41 -17 -66 -30q-42 -14 -44 -28q-2 -12 8 -12q4 -1 62 23q123 52 197 56q24 -2 29 0q15 3 18 19z" />
    <glyph glyph-name="question" unicode="?" horiz-adv-x="391" 
d="M341 547q0 52 -24 90q-28 43 -78 43q-69 0 -149 -79q-47 -46 -84 -107q-41 -73 -41 -127q0 -40 27 -34q-1 5 -1 9v10q0 47 26 94q8 15 23.5 36t38.5 49q96 117 163 117q66 0 66 -71q0 -68 -55 -144q-34 -45 -59 -78.5t-42 -55.5q-55 -74 -55 -131q0 -56 22 -56q13 0 13 9
q0 3 -6 12.5t-6 19.5l18 63q21 29 49.5 64t63.5 77q25 29 42 51.5t25 38.5q23 44 23 100zM152 32q0 25 -35 25q-12 0 -19.5 -13t-7.5 -26q0 -29 27 -29q15 0 25 13.5t10 29.5z" />
    <glyph glyph-name="at" unicode="@" horiz-adv-x="546" 
d="M338 418q0 -15 -6 -46q-6 -30 -6 -46q0 -29 -20 -89q-21 -64 -42 -77q-14 0 -23 19q-7 15 -7 32q0 90 16 151q7 23 12 41t9 29q13 48 30 48q21 0 25 -46zM326 227q9 -26 26 -46q23 -23 46 -23q20 0 35.5 5.5t28.5 19t23 35.5t19 55q14 58 14 102q0 92 -56 168
q-62 83 -152 81t-156 -68q-133 -136 -132 -337q1 -104 57 -160q73 -72 187 -72q93 0 167 73q4 12 4 23q0 17 -12 17q-9 0 -28 -19q-71 -71 -145 -70q-87 2 -139 68q-48 62 -47 152q1 187 117 303q62 62 128 63q75 1 127 -75q46 -68 46 -148q0 -43 -14 -93q-16 -54 -44 -82
q-11 -11 -27 -11q-17 0 -32 26q-14 27 -13 44q3 96 32 185l-35 12l-18 36q-12 23 -56 23q-20 0 -49 -104q-13 -47 -19 -79t-7 -51q-3 -147 57 -147q42 0 67 94z" />
    <glyph glyph-name="A" unicode="A" horiz-adv-x="676" 
d="M666 6q-2 3 -11 8.5t-13 17.5q-14 37 -29 95t-32 137q-42 199 -42 336q0 8 2 23.5t2 23.5q0 10 -28 26q-28 17 -38 17q-31 0 -31 -13q0 -3 2 -7.5t2 -7.5q0 -30 -58 -177q-65 -167 -115 -249q-108 -12 -108 -19q0 -14 24 -14q6 0 17.5 2.5t18.5 2.5q6 0 12.5 -0.5
t14.5 -1.5q-47 -91 -78 -125q-54 -57 -129 -57q-49 0 -49 30q-6 0 -10 1q-5 2 -8 0q-3 -1 -8 -8q34 -72 117 -72q64 0 127 96q29 46 49.5 81t34.5 58q17 2 46 3.5t71 3.5q76 3 118 9q40 -178 76 -225q23 -5 35 -5q18 0 18 10zM518 331q13 -77 13 -83l-213 -5q16 28 36.5 75
t46.5 116q26 71 43.5 114t26.5 60q7 -6 12 -24l0.5 -7l1.5 -21q4 -51 33 -225z" />
    <glyph glyph-name="B" unicode="B" horiz-adv-x="525" 
d="M550 567q0 62 -79 98q-62 28 -133 28q-123 0 -229 -20q0 32 -31 32q-18 0 -18 -42q-87 -10 -82 -20q13 -23 39 -21q42 2 44 0l-5 -64q-7 -90 -10 -184.5t-3 -197.5q0 6 0 -6q0 -11 -1 -40v-42q0 -98 41 -100q9 0 9 28q-7 0 56 -22t98 -22q74 0 152 82t78 156
q0 135 -159 164q61 29 99 48t54 29q28 17 52 51q28 37 28 65zM504 585q0 -41 -56 -97q-50 -51 -95 -67q-189 -67 -258 -71q0 157 15 279q18 4 47 8t70 9q45 5 74.5 8t43.5 3q159 0 159 -72zM435 236q0 -69 -71 -149q-77 -86 -157 -86q-15 0 -56 22q-23 13 -39.5 20t-24.5 9
q1 10 1 21v22t-0.5 27t-1.5 38t-1 38v28q0 56 13 72q34 43 173 43q164 0 164 -105z" />
    <glyph glyph-name="C" unicode="C" horiz-adv-x="427" 
d="M405 127l-16 -29q-103 -79 -214 -79q-124 0 -124 168q0 149 57 304q61 168 136 168q36 0 70 -17q42 -20 42 -53q0 -30 -17 -96q-17 -65 -17 -92q0 -15 7 -30q8 -20 21 -20q19 0 34 80q12 64 12 99q0 58 -15 85q-11 21 -44 40q-52 31 -107 31q-39 0 -58 -13
q-77 -50 -129 -215q-43 -135 -43 -245q0 -95 44 -157q50 -68 143 -68q59 0 124 27q65 29 99 73q9 22 9 27q0 10 -14 12z" />
    <glyph glyph-name="D" unicode="D" horiz-adv-x="548" 
d="M543 454q0 56 -24 97q-5 10 -17.5 25t-31.5 35q-31 32 -60 41q-20 7 -74 7q-38 0 -108 -22q0 40 -44 40q-26 0 -26 -12q8 -5 8 -57q-51 -24 -75.5 -36l-24.5 -12q-88 -45 -88 -78q0 -8 6 -16t13 -5q2 5 3 19q0 10 6 15q62 41 151 74q1 -5 1 -18l-13 -131
q-7 -64 -10.5 -130.5t-3.5 -137.5q0 -21 3 -63q2 -20 3 -35.5t1 -26.5q0 -35 29 -35q13 0 13 10q0 5 -3 11v20q31 -11 44 -18l36 -26q19 -14 38 -14q67 0 129 98q51 81 87 205q32 113 32 176zM495 475q0 -144 -68 -297q-72 -159 -153 -159q-23 0 -55 23l-46 40
q22 436 48 517q29 25 99 25q88 0 129 -29q46 -34 46 -120z" />
    <glyph glyph-name="E" unicode="E" horiz-adv-x="596" 
d="M587 107q0 21 -35 21v-19q3 0 3 -2q0 -8 -66 -42q-26 -14 -93 -24q-59 -10 -97 -10q-96 0 -169 27q-102 37 -102 118q0 98 145 158q108 44 195 44q12 0 35 -14q14 5 16 26q1 21 -12 30q-8 1 -29.5 -0.5t-56.5 -3.5q-80 -6 -93 -6q-44 0 -80 13q-51 19 -51 54
q0 81 151 124q106 30 215 30q31 0 48 -9q22 -17 34 -28q12 0 12 30q0 35 -35 46q-18 7 -64 7q-126 0 -235 -36q-154 -51 -154 -152q0 -46 29 -73q24 -21 73 -38q-78 -40 -116 -76q-55 -52 -55 -122q0 -101 103 -153q82 -41 192 -41q69 0 168 31q124 39 124 90z" />
    <glyph glyph-name="F" unicode="F" horiz-adv-x="445" 
d="M594 643q0 14 -47 12q-18 -1 -42.5 0.5t-55.5 3.5q-72 -2 -154 -7.5t-176 -15.5q-32 -2 -56 -4t-40 -3q-37 -4 -37 -23q0 -2 2 -12q17 -23 22 -23q1 1 5 3.5t11 7.5q9 6 19 8q43 5 82 9.5t76 8.5q-17 -186 -24 -282h-11q-8 1 -19 1h-21q-41 0 -62 -8l-2 -4q-1 -3 1 -4
q35 -5 63.5 -7t51.5 -3q0 -6 -0.5 -15t-1 -18.5t-1 -18.5t-0.5 -15v-176q0 -64 34 -64q7 0 18 3q-12 30 -12 131q0 13 0.5 41t1.5 73q3 88 3 51q5 5 82 6q71 2 71 24q0 4 -1 7q-36 2 -63.5 3t-46.5 1q-14 0 -24 -0.5t-15 -1.5q0 113 45 283l140 14q34 4 58.5 5.5t40.5 1.5
h15q10 0 24 -1q25 -2 33 0q13 1 13 8z" />
    <glyph glyph-name="G" unicode="G" horiz-adv-x="525" 
d="M524 291q0 15 -83 15q-139 0 -314 -35q-33 -8 -33 -33q74 25 275 25q17 -11 17 -46q0 -70 -69 -131q-69 -60 -140 -60q-126 0 -126 164t101 349q52 97 101 97q33 0 68 -24q39 -26 39 -57q0 -17 -3 -48q-3 -32 -3 -48q0 -72 37 -72q32 0 32 138q0 38 -25 69q-19 25 -38 33
q-99 43 -125 43q-46 0 -74 -24q-20 -17 -48 -63q-113 -188 -113 -380q0 -97 46 -150q49 -58 143 -58q75 0 146 57q70 57 84 131q5 26 8 46.5t5 36.5q92 15 92 25z" />
    <glyph glyph-name="H" unicode="H" horiz-adv-x="526" 
d="M526 283q0 11 -15 11q-11 0 -25 -7q-11 0 -33 1.5t-56 3.5l15 110q8 55 14 94.5t11 65.5q1 4 4.5 13.5t8.5 24.5q9 25 9 35q0 18 -17 29.5t-35 11.5q-30 0 -30 -22q0 -5 2 -13.5t2 -12.5l-19 -259q-2 -29 -3.5 -49t-2.5 -30l-147 -4q-40 -1 -67 -1q-26 0 -39 2
q0 23 3.5 58t10.5 82t10.5 81.5t3.5 57.5q0 38 -12.5 51.5t-50.5 17.5q6 -23 6 -67q0 -83 -24 -290q-16 -2 -26.5 -3.5t-17.5 -3.5q-28 -6 -28 -25q0 -16 29 -18h43l-3 -38q-3 -38 -3 -69q0 -33 3 -58q6 -51 7 -53q8 -19 44 -14q-5 23 -8 49.5t-3 57.5q0 14 1.5 38.5
t3.5 60.5q22 0 111 -68q32 -25 59.5 -47t49.5 -42q7 -6 17.5 -17t25.5 -28q16 -18 24 -18q19 0 44 16q-35 44 -35 128q0 11 0.5 27t1.5 38q3 43 3 65q17 1 36 2t41 3q5 1 13 2.5t18 4.5q25 7 25 15zM354 34q-40 64 -107 108q-35 22 -61 38.5t-43 27.5q-5 3 -13 7.5t-21 9.5
q-15 7 -15 14q0 15 42 17q-13 -1 8 -1h79q54 0 86 -1t44 -3z" />
    <glyph glyph-name="I" unicode="I" horiz-adv-x="301" 
d="M325 637q-5 9 -14 9h-18q-10 0 -24 1t-24 1h-17q-15 0 -184 -18q-13 -7 -23 -13.5t-18 -13.5q45 -3 106 -3q3 -12 -6 -234q-5 -131 -8 -199.5t-3 -78.5q0 -6 1 -15.5t2 -19.5t2 -19t1 -15l-71 -8q-53 -6 -53 -15q1 -13 95 -13q80 0 138 14q40 9 49 19q0 14 -77 11
q-26 -1 -35.5 -1.5t-3.5 -0.5q-5 15 -5 83q0 120 12 264q13 161 35 231l100 17q4 1 14.5 5t28.5 12z" />
    <glyph glyph-name="J" unicode="J" horiz-adv-x="360" 
d="M325 630q0 28 -55 28q-28 0 -28 -24q0 -6 5 -19t5 -20l2 -139q1 -53 1.5 -100.5t0.5 -91.5q0 -109 -14 -157q-20 -66 -78 -66q-38 0 -75 30q-9 6 -55 57q-29 30 -43 30q-25 0 -23 -21q3 -43 104 -93q94 -44 145 -44q54 0 71 62q9 31 9 106q0 14 -0.5 35.5t-1.5 50.5
t-1 50v36q0 19 2 51t6 80q7 90 15 144q4 30 6 34t2 -19z" />
    <glyph glyph-name="K" unicode="K" horiz-adv-x="467" 
d="M490 612q-1 11 -8 26t-16 15q-32 -63 -146 -165q-62 -56 -153 -117q-17 -11 -40 -25.5t-52 -33.5q0 13 3 46.5t8 89.5t10 100t10 77q5 39 8 45.5t3 -19.5q0 32 -25 32q-13 0 -44 -48l4 -80q1 -20 -0.5 -53t-6.5 -79q-5 -51 -7.5 -83.5t-2.5 -47.5q-15 -8 -26 -14t-19 -9
l-7 -23q13 -21 45 -39v-24q0 -15 -1 -38v-61q2 -86 40 -86q18 0 18 9q-13 15 -15 59q-1 10 -1 39v79q83 -45 151 -78t123 -56q78 -32 89 -32q9 0 22 16q8 8 11.5 12l3.5 4q-2 10 -24 11h-16q-7 0 -15 1q-53 6 -194 80q-149 80 -149 118q0 2 72 49q48 32 94.5 66.5t91.5 72.5
q36 31 58.5 50t30.5 27q49 46 72 87z" />
    <glyph glyph-name="L" unicode="L" horiz-adv-x="671" 
d="M702 -66q-45 -3 -88 19q-13 7 -36 22t-56 39q-37 27 -73 51t-71 46q16 90 24 147.5t10 83.5q40 17 70 32.5t50 28.5q33 22 57 49q35 38 35 64q0 28 -10 49q-1 3 -26 45q-54 91 -100 91q-53 0 -93 -159q-6 -24 -33 -186q-34 -17 -82 -17q-22 0 -33 8q-11 -11 -11 -19
q0 -15 43 -15q6 0 17 1.5t22 3.5t22 3.5t17 1.5q0 -118 -16 -181q-45 22 -78 36t-54 22q-91 32 -162 32q-11 0 -21.5 -5.5t-18.5 -14t-13.5 -19.5t-5.5 -21q0 -74 65 -137q67 -62 141 -62q85 0 132 45q8 8 18.5 23.5t21.5 38.5q13 -7 57 -35t120 -78q74 -49 120 -49
q29 0 39 16zM571 538q0 -65 -48 -105q-34 -30 -106 -56q40 274 92 274q27 0 47 -44q15 -36 15 -69zM332 105q0 -22 -9 -41t-24 -32.5t-35 -21.5t-42 -8q-76 0 -137 66q-54 57 -54 102q0 32 48 32q113 0 253 -97z" />
    <glyph glyph-name="M" unicode="M" horiz-adv-x="753" 
d="M752 -66q-78 21 -78 275q0 32 3 84.5t10 125.5q15 164 29 195q-3 26 -86 26q-12 -4 -13 -37q-1 -28 -1 -45t-1 -24q-11 -60 -31 -132.5t-49 -158.5q-65 -192 -94 -192q-42 0 -66 154q-10 62 -14.5 132t-4.5 151q0 116 10 140q-41 30 -61 30q-30 0 -30 -45
q0 -108 -49 -270q-47 -155 -104 -256q-20 -35 -48 -60q-35 -31 -67 -31q-5 0 -26 3t-56 10l-7 -5q34 -45 84 -45q84 0 151 118q43 76 91 227q42 133 53 144q11 -79 18.5 -138t12.5 -99q33 -211 104 -211q54 0 120 209q23 79 40 137.5t28 98.5q9 29 13 38q1 -14 0.5 -34.5
t-1.5 -49.5q-3 -83 -3 -143q0 -96 18 -193q27 -150 84 -150q10 0 21 21z" />
    <glyph glyph-name="N" unicode="N" horiz-adv-x="534" 
d="M533 683q0 12 -20 15q-37 -49 -54 -197q-8 -88 -14 -153t-10 -110l-6 -135q-2 -54 -19 -54q-40 0 -79 174q-42 187 -42 434q0 36 -52 36q-23 0 -39 -25q1 -3 1 -16q0 -84 -30 -282q-55 -369 -172 -369q-27 0 -27 12q0 3 4 7q-4 4 -10 4q-13 0 -13 -16q0 -33 65 -33
q79 0 120 101q29 72 51 232q14 100 24 163t17 89q22 -143 45.5 -251.5t49.5 -186.5q25 -80 33 -90q22 -37 63 -37q45 0 45 23q0 5 -2.5 16t-2.5 17q0 62 4.5 138t12.5 168q9 96 19 166t21 115q1 3 4 9.5t6 13.5t5 13t2 9z" />
    <glyph glyph-name="O" unicode="O" horiz-adv-x="436" 
d="M412 422q0 262 -199 275q-5 0 -13 -5q-18 8 -23 8q-21 0 -45 -30q-8 -11 -16.5 -23t-16.5 -24q-49 -68 -76 -186q-23 -103 -23 -201q0 -99 47 -170q53 -80 148 -80q124 0 180 167q37 111 37 269zM375 427q0 -410 -187 -410q-135 0 -135 221q0 113 47 256q57 172 134 172
q79 0 115 -86q26 -63 26 -153z" />
    <glyph glyph-name="P" unicode="P" horiz-adv-x="494" 
d="M547 537q0 69 -65 107q-52 31 -128 31q-74 0 -190 -25q1 4 1 12q0 31 -31 32q-22 1 -33 -10l-4 -48q-3 -1 -16.5 -4.5t-36.5 -10.5q-41 -11 -52 -23q-17 -17 -9 -56q9 9 37 23q20 10 39 16t38 10l-7 -121q-7 -133 -6 -199l-20 -5l-4 -23q12 -3 21 -2q0 -73 1.5 -119.5
t3.5 -66.5q4 -34 10 -44q10 -16 35 -16q3 0 9.5 1.5t9.5 1.5q-28 18 -28 109l5 143q157 30 262 85q158 83 158 202zM495 560q0 -91 -97 -170q-45 -36 -137 -69q-20 -7 -53 -17t-81 -24q0 38 9 154q10 140 23 176q29 6 47.5 9.5t26.5 5.5q100 18 142 18q120 0 120 -83z" />
    <glyph glyph-name="Q" unicode="Q" horiz-adv-x="415" 
d="M401 413q0 102 -9 134q-17 59 -80 99q-72 47 -125 45q-51 -1 -82 -37q-20 -23 -47 -91q-58 -144 -58 -279q0 -227 111 -293q-6 -4 -54 -23q-34 -13 -34 -32q0 -12 7 -12q4 0 18 10q17 11 23 12q51 13 130 13q15 0 37.5 -2t51.5 -6t51.5 -6t37.5 -2q8 0 10 2l5 16
q-2 -1 -10 -1q-52 0 -124 26q85 48 118 212q23 118 23 215zM352 381q0 -126 -28 -226q-42 -154 -135 -154q-79 0 -113 88q-25 62 -25 154q0 157 62 301q25 56 45 79q27 29 70 29q19 0 34 -9q1 -1 7.5 -6.5t19.5 -15.5q28 -14 33 -21q30 -56 30 -219z" />
    <glyph glyph-name="R" unicode="R" horiz-adv-x="558" 
d="M614 529q0 61 -64 98q-56 32 -120 32q-68 0 -246 -32q-4 22 -17 30q-7 4 -34 9q-1 -4 -1.5 -11.5t0.5 -19.5q1 -23 -3 -30l-78 -36q-73 -34 -73 -64q0 -21 14 -21q5 0 10 5q-6 6 -6 9q0 11 59 40q61 29 77 29q0 -4 -1 -16.5t-3 -34.5t-3 -36t-1 -21q0 -35 -1.5 -89.5
t-5.5 -130.5q-3 -72 -4.5 -126.5t-0.5 -92.5q0 -18 9 -34q10 -22 26 -22q10 0 14 13q-12 64 -12 114q0 1 0.5 10.5t1.5 29.5q1 17 1 34v34q5 53 20 53q9 0 39 -44q85 -96 136 -139q33 -28 78 -47q48 -22 87 -22q30 14 44 24q0 7 -6 7q-5 0 -17 -4.5t-18 -4.5q-39 0 -94 34
q-22 14 -42 30t-38 34q-22 22 -58 73q-39 55 -45 78q91 24 237 102q39 20 85 68q54 55 54 88zM552 549q0 -53 -58 -111q-48 -48 -106 -76q-21 -11 -49 -22t-63 -22q-73 -23 -115 -28q0 14 1.5 38t5.5 58q5 51 9 99.5t7 97.5q144 44 248 44q120 0 120 -78z" />
    <glyph glyph-name="S" unicode="S" horiz-adv-x="429" 
d="M401 63q0 60 -81 95l-179 75q-30 12 -48.5 41.5t-18.5 62.5q0 63 46 176q52 130 101 130q34 0 61 -41q23 -34 28 -72q9 -87 9 -159q0 -34 23 -34q22 0 22 60q0 31 -1.5 62.5t-3.5 65.5q-4 58 -55 104q-49 46 -108 46q-51 0 -92 -80q-83 -168 -83 -258t69 -120l230 -99
q28 -12 28 -48q0 -62 -108 -62q-76 0 -161 21q-62 15 -67 20l-17.5 17.5t-9.5 8.5q-11 -5 -11 -15q0 -17 23 -29q113 -59 256 -59q52 0 95 20q53 24 53 71z" />
    <glyph glyph-name="T" unicode="T" horiz-adv-x="556" 
d="M709 622q1 16 -27 16q-34 0 -92 -1.5t-141 -5.5q-103 -5 -175.5 -10t-115.5 -10l-124 -16q-51 -14 -51 -58q0 -47 31 -66q25 -14 76 -14q65 0 159 23q24 6 42 36q-89 -27 -189 -27q-90 0 -90 32q0 43 225 60q76 6 103 3q1 -8 1.5 -17t0.5 -20q0 -40 -4 -99t-12 -139
q-15 -159 -15 -239q0 -54 20 -77q8 -4 15 -6.5t12 -3.5q-9 56 -7 96q3 60 10.5 139t20.5 180q20 160 27 196q144 12 279 12q20 0 21 16z" />
    <glyph glyph-name="U" unicode="U" horiz-adv-x="542" 
d="M534 581q-44 33 -62 33q-13 0 -19 -11q0 -8 3 -18q4 -19 4 -66q0 -130 -38 -274q-11 -42 -24 -76.5t-29 -63.5q-48 -92 -104 -92q-68 0 -94 77q-14 47 -14 134q0 172 75 351q3 6 20 27q17 20 17 27q0 16 -52 32q-95 -210 -216 -210h-9t-9 1q25 -25 52 -25q40 0 113 56
q-39 -158 -39 -250q0 -247 156 -247q58 0 103 63q7 10 22 37.5t38 75.5l4.5 -96l1.5 -32q6 -78 38 -78q14 0 21 5q-19 15 -22 106v101l32 312q2 17 12 53q5 18 10 30t9 18z" />
    <glyph glyph-name="V" unicode="V" horiz-adv-x="549" 
d="M531 637q0 44 -20 44q-5 0 -16 -8q5 -8 6 -13t0 -12l-1.5 -7.5t-0.5 -4.5q0 -94 -10.5 -192.5t-32.5 -201.5q-51 -242 -119 -242q-42 0 -66 82q-17 63 -17 117q0 60 12 179q7 60 10 104t3 73q0 38 -24 74q-27 41 -63 41q-59 0 -132 -114q-81 -129 -81 -201q0 -20 12 -20
q5 0 10 21q9 37 12 44q18 49 78 135q67 96 105 96q32 0 32 -69q0 -55 -12 -166q-5 -55 -8 -96t-3 -69q0 -94 26 -167q36 -101 115 -101q86 0 139 230q46 197 46 444z" />
    <glyph glyph-name="W" unicode="W" horiz-adv-x="560" 
d="M538 514q0 125 -16 153q-8 15 -22 15q-10 0 -10 -9q0 -12 6 -24t6 -23l2 -76q1 -24 1 -44v-33q-1 -40 -6 -85q-14 -111 -40 -209q-43 -166 -98 -166q-42 0 -63 88q-7 29 -10.5 58.5t-3.5 60.5q0 297 38 335q-15 19 -42 19q-17 0 -34 -7q0 -6 2 -18t2 -18
q-2 -114 -8.5 -198.5t-16.5 -142.5q-9 -52 -32 -106q-33 -76 -69 -76q-44 0 -66 99q-15 67 -15 133q0 64 2.5 118t7.5 99q1 18 17 76q13 48 13 73q0 15 -17 26t-32 11q-24 0 -24 -35q0 -14 4 -23q-7 -92 -10.5 -160t-3.5 -113q0 -344 129 -344q75 0 112 190q4 1 16 -44
q35 -128 106 -128q81 0 131 174q44 155 44 354z" />
    <glyph glyph-name="X" unicode="X" horiz-adv-x="497" 
d="M299 330q17 33 61 89t114 137l36 39q26 31 26 41q0 6 -9 11q-118 -98 -237 -268q-8 43 -18.5 80.5t-21.5 70.5q-7 20 -12.5 32.5t-10.5 19.5q-28 40 -82 40q-56 0 -102 -96q-43 -86 -43 -168q0 -30 18 -30q12 0 12 14q0 8 -5 23q-1 37 39 124q46 99 92 99q32 0 53 -74
q4 -13 13 -60t24 -129q0 -16 -90 -152q-89 -137 -89 -169q0 -33 43 -36l-4 32q0 39 155 275q25 -87 48.5 -147.5t45.5 -95.5q49 -78 117 -78q15 0 16 1q6 1 6 13q-51 2 -76 39q-14 26 -24.5 46t-17.5 34q-35 63 -77 243z" />
    <glyph glyph-name="Y" unicode="Y" horiz-adv-x="402" 
d="M389 636q-1 24 -34 25q-27 1 -28 -18q-5 -96 -12.5 -177t-15.5 -150q-14 -108 -58 -195q-50 -99 -105 -99q-81 0 -81 177q0 78 7.5 159.5t21.5 169.5q1 5 2 10.5t3 12.5l8 35q-41 34 -49 34q-18 0 -18 -31q0 -6 1 -19t1 -19q0 -59 -12 -177q-5 -60 -8 -104t-3 -73
q0 -81 27 -133q34 -66 109 -66q59 0 103 78q17 30 51 130q4 -54 5.5 -93.5t1.5 -65.5q0 -291 -175 -291q-39 0 -97 46t-67 46q-26 0 -26 -18q0 -32 99 -69q88 -32 128 -32q79 0 135 83q49 74 49 158q0 42 -6 128q-2 43 -3.5 75t-1.5 54q0 77 4 141t12 118q4 26 12 63.5
t20 86.5z" />
    <glyph glyph-name="Z" unicode="Z" horiz-adv-x="466" 
d="M470 546q0 34 -25.5 55t-59.5 21q-23 0 -72.5 -7t-124.5 -21q-77 -15 -107 -24q-51 -17 -51 -42q0 -16 23 -16q-1 16 31 25q129 36 258 36q36 0 36 -13q0 -11 -82 -105l-153 -174q-26 -29 -52.5 -64t-53.5 -75q-59 -89 -59 -116q0 -22 12 -37q12 -19 33 -19q14 0 52 11
q19 5 32 8.5t21 4.5l101 15q35 5 62.5 8t47.5 3q6 0 15 -1t18.5 -2.5t18.5 -2.5t15 -1q25 0 25 16q0 13 -62 21q-44 6 -81 6q-20 0 -48.5 -3t-66.5 -10q-75 -12 -107 -12q-38 0 -38 12q0 16 60 99q53 71 78 98q234 255 262 269l6 3q36 18 36 34z" />
    <glyph glyph-name="bracketleft" unicode="[" horiz-adv-x="291" 
d="M258 -72q0 11 -17 11q-9 0 -25.5 -2t-25.5 -2h-7q-4 0 -9 -1q-9 -1 -16 0q-12 2 -22 6q-19 92 -19 339v249q0 46 -1 -66q0 54 3 93.5t8 66.5q30 11 63 11q4 0 11 -1.5t14 -4t12.5 -4t8.5 -1.5t6 3q11 9 11 30q0 13 -18 13h-116q-46 -1 -44 -19q5 -54 8 -146t3 -224
l1 -375q0 -11 16 -11q10 0 26 1.5t38 5.5q45 6 68 6t23 22z" />
    <glyph glyph-name="backslash" unicode="\" horiz-adv-x="100" 
d="M20 24q-4 -2 -10.5 -5.5t-6.5 -11.5q0 -9 23 -9q26 0 70 131q39 118 39 152q0 15 -8 15t-14 -23q-20 -82 -42 -148q-33 -101 -51 -101z" />
    <glyph glyph-name="bracketright" unicode="]" horiz-adv-x="270" 
d="M222 -80q-5 54 -8 145.5t-3 223.5l-1 376q0 11 -16 11q-10 0 -26 -1.5t-39 -5.5q-44 -6 -67 -6t-23 -22q0 -11 17 -11q9 0 25.5 2t25.5 2h6q5 0 10 1q10 1 17 0q8 -1 22 -6q18 -96 18 -340v-158q0 -45 1 -25q-2 -107 -12 -159q-30 -11 -62 -11q-5 0 -11.5 1.5t-13.5 4
t-12.5 4t-8.5 1.5t-6 -3q-11 -9 -11 -30q0 -13 18 -13h116q46 1 44 19z" />
    <glyph glyph-name="asciicircum" unicode="^" horiz-adv-x="312" 
d="M312 385q0 10 -6 24t-13.5 34.5t-17.5 48.5q-35 99 -48 132q-5 36 -17 48q-50 4 -72 -36q-10 -16 -27 -85q-2 -8 -9 -27.5t-20 -50.5q-18 -45 -18 -75q0 -36 7 -36q9 0 17 14q17 48 29 83.5t20 59.5q12 31 18.5 47t7.5 18q2 19 6 23q1 1 5.5 4.5t13.5 8.5
q10 -40 23 -77.5t30 -73.5q43 -94 61 -94q10 0 10 10z" />
    <glyph glyph-name="underscore" unicode="_" horiz-adv-x="500" 
d="M503 -120v42h-505v-42h505z" />
    <glyph glyph-name="grave" unicode="`" 
d="M89 520q5 10 5 14q0 7 -25 31q-10 9 -16 15l-8 8q-12 19 -34 15q-19 -4 -19 -21q0 -15 27 -31q7 -4 11.5 -6.5t6.5 -3.5l46 -27z" />
    <glyph glyph-name="a" unicode="a" 
d="M111 264l-12 -92q-2 -18 -8 -40.5t-14 -48.5q-21 -66 -40 -77q-14 0 -23 19q-7 15 -7 32q0 90 16 151q7 23 12 41t9 29q13 48 30 48q21 0 25 -46zM160 0q30 0 72 130q37 114 37 151q0 15 -8 15t-14 -23q-59 -246 -93 -246q-17 0 -25 35q-6 25 -4 48q9 106 34 179l-35 12
l-18 36q-12 23 -56 23q-20 0 -49 -104q-23 -91 -25 -130q-3 -146 56 -146q41 0 67 93q24 -73 61 -73z" />
    <glyph glyph-name="b" unicode="b" horiz-adv-x="251" 
d="M179 255q0 89 -62 89q-39 0 -60 -81q-10 -40 -20 -64q0 45 11 128.5t33 208.5q2 14 5.5 29t7.5 30q7 25 7 35q0 25 -24 25q-20 2 -26 -9q3 -10 -1 -43q-9 -73 -16 -127t-12 -90q-11 -94 -16 -178t-4 -160q-2 -6 -2 -10q0 -10 7 -21.5t16 -11.5t14 15h9q19 -45 44 -45
q44 0 70 122q19 85 19 158zM147 236q0 -90 -22 -166q-16 -61 -40 -61q-13 0 -22 15q-15 25 -24 33q0 45 27 146q30 116 58 116q23 0 23 -83z" />
    <glyph glyph-name="c" unicode="c" horiz-adv-x="165" 
d="M192 296q-9 0 -13 -15q-1 -4 -9 -41q-50 -215 -107 -215q-21 0 -31 31q-8 24 -8 47q0 148 41 198q23 -17 36 -17q17 0 17 24q0 14 -17 36q-17 21 -31 21q-36 0 -61 -97q-19 -75 -19 -128t14 -92q21 -52 68 -52q39 0 74 84q13 34 36 117q18 66 18 82q0 17 -8 17z" />
    <glyph glyph-name="d" unicode="d" horiz-adv-x="249" 
d="M100 340q30 0 30 -45q0 -10 -1 -22.5t-3 -28.5q-2 -20 -3 -32.5t-2 -18.5q-5 -24 -13 -50t-19 -54q-29 -74 -51 -74t-22 97q0 46 23 129q28 99 61 99zM169 24q-21 4 -23 75q0 17 4.5 59t12.5 108q11 88 17 134.5t7 53.5q13 66 22 114.5t15 79.5q4 30 -20 30q-13 0 -17 -1
q-12 -4 -9 -31q-13 -97 -22.5 -168t-15.5 -118q-2 -3 -4 -3q-1 0 -20 14q-18 15 -31 15q-38 0 -73 -113q-31 -102 -31 -182q0 -39 13 -66q17 -38 48 -38q24 0 48 45q3 5 10.5 21t18.5 44q9 -99 56 -99q26 0 70 131q39 118 39 152q0 15 -8 15t-14 -23q-20 -82 -42 -148
q-33 -101 -51 -101z" />
    <glyph glyph-name="e" unicode="e" horiz-adv-x="190" 
d="M225 284q0 12 -13 12q-4 0 -19 -57q-60 -228 -108 -228q-18 0 -34 21q-17 22 -17 39q25 39 42 77q43 92 43 166q0 21 -18 36t-39 15q-36 0 -55 -109q-7 -38 -10 -72t-3 -65q0 -45 20 -85q26 -47 68 -47q30 0 53 29q37 51 75 201q15 60 15 67zM92 303q0 -39 -19 -105
q-21 -76 -44 -90q0 105 37 216q4 13 12 13q14 0 14 -34z" />
    <glyph glyph-name="f" unicode="f" horiz-adv-x="177" 
d="M212 282q0 14 -10 14q-6 0 -9 -13q-16 -61 -27.5 -101t-19.5 -60q-27 -70 -58 -63q-16 41 -20 47q-17 29 -38 32q5 85 18.5 187.5t34.5 225.5q9 53 34 90q-14 12 -30 12q-23 0 -31 -7q-63 -408 -69 -814q-3 -190 78 -190q20 0 25 8q34 58 34 196q0 71 -28 186
q27 10 39 21q24 20 35 63q3 12 9.5 37t17.5 63q15 54 15 66zM101 -174q0 -17 -2.5 -39t-7.5 -49q-12 -71 -31 -71q-21 0 -34 73q-4 25 -6 47.5t-2 42.5q0 95 12 241q14 -28 40 -41q31 -78 31 -204z" />
    <glyph glyph-name="g" unicode="g" horiz-adv-x="232" 
d="M229 -87q22 -11 36 -11q22 0 22 17q0 26 -44 26q-14 0 -40 -1.5t-63 -5.5q-4 45 -5.5 72t-1.5 38q0 24 3 51.5t8 59.5q14 82 39 128q-24 7 -62 51q-35 41 -55 41q-28 0 -59 -118q-30 -113 -30 -179q0 -38 14 -69q17 -38 52 -38q19 0 37 32q19 33 23 34q0 -18 3 -54
q2 -19 3 -32.5t1 -22.5q-51 -17 -87 -24q-177 -62 -177 -147q0 -63 50 -107q49 -45 113 -45q85 0 115 71q20 48 20 146q0 6 -0.5 17t-0.5 23t-0.5 23t-0.5 17q0 7 87 7zM128 268q0 -68 -31 -164q-33 -104 -61 -104q-25 0 -25 64q0 71 29 176q25 93 35 93q53 0 53 -65z
M114 -98q2 -40 3 -60.5t1 -22.5q0 -180 -118 -180q-48 0 -85 33q-39 33 -39 80q0 42 52 84q37 30 89 52q36 14 97 14z" />
    <glyph glyph-name="h" unicode="h" horiz-adv-x="273" 
d="M274 149q34 120 34 134q0 13 -9 13t-13 -22q-5 -23 -11 -46t-13 -46q-38 -135 -66 -135q-32 0 -32 81q0 94 27 237q-32 27 -43 27q-16 0 -20 -27q-15 -83 -35 -158.5t-45 -145.5q-5 47 -7.5 69.5t-2.5 20.5q0 72 12 180t35 254q2 9 4 18.5t4 19.5q9 30 9 43q0 16 -20 18
q-26 1 -33 -15q1 -5 1.5 -12t0.5 -16q0 -41 -6 -101.5t-17 -142.5t-17 -142.5t-6 -101.5q0 -162 40 -162q7 0 14 4q58 261 75 287q1 -81 1.5 -120.5l0.5 -39.5q6 -112 65 -112q26 0 44 43q4 8 11 32t18 64z" />
    <glyph glyph-name="i" unicode="i" horiz-adv-x="132" 
d="M85 553q0 37 -34 37q-10 0 -20.5 -11t-10.5 -21q0 -16 12 -29t28 -13q25 0 25 37zM167 282q0 14 -9 14q-8 0 -14 -24q-7 -29 -13 -51t-11 -38q-32 -101 -33 -102q-20 -50 -34 -50q-30 0 -30 67q0 64 19 155q5 22 8.5 36.5t5.5 22.5q0 14 -26 14q-13 0 -20 -7
q0 -18 -2 -45.5t-6 -64.5t-6 -64t-2 -45q0 -33 11 -63q15 -36 46 -36q28 0 48 44q7 16 33 98q35 114 35 139z" />
    <glyph glyph-name="j" unicode="j" horiz-adv-x="136" 
d="M93 579q0 26 -32 26q-4 0 -9 -4.5t-9 -10.5t-7 -12.5t-3 -10.5q0 -9 11.5 -17t20.5 -8q28 0 28 37zM164 -80q0 17 -26 31q-21 10 -43 10q-11 0 -32.5 -2.5t-32.5 -2.5q-1 12 -1.5 25.5t-0.5 29.5q0 34 2 71t6 77q11 103 28 141q0 14 -21 14q-11 0 -38 -7l2 -6q1 -5 3 -12
q1 -8 -6 -99q-4 -48 -5.5 -85t-1.5 -63l5 -88q-165 -41 -221 -110q-10 -11 -16.5 -20t-11.5 -14q-16 -20 -16 -47q0 -57 59 -98q53 -35 114 -35q57 0 94 43t36 99l-7 161q7 0 22.5 2.5t23.5 2.5q30 0 47 -9q7 -4 16.5 -15t13.5 -11q8 11 8 17zM5 -235q1 -48 -28 -78t-77 -30
q-45 0 -88 26q-47 29 -47 73q0 64 138 135q54 28 99 35z" />
    <glyph glyph-name="k" unicode="k" horiz-adv-x="260" 
d="M286 232q9 30 9 52q0 12 -8 12q-11 0 -15 -22q-5 -22 -6 -31q-15 -55 -27.5 -94.5t-22.5 -64.5q-24 -57 -48 -57q-26 0 -39 42q-9 28 -9 64q0 20 3 32l33 52.5l11 17.5q25 43 25 88q0 21 -14.5 36t-35.5 15q-28 0 -55 -58q-26 -57 -40 -86t-16 -31q3 48 8.5 100.5
t13.5 110.5q12 89 15 109q21 90 21 115q0 14 -9 25.5t-23 11.5q-16 0 -20 -22q-3 -18 1 -34q-1 -43 -6 -109.5t-16 -157.5q-10 -88 -15 -154t-5 -112q0 -17 1 -31t3 -24q7 -43 21 -43q16 0 16 15q0 11 -7 32q4 37 6 60q42 29 52 33q17 -71 21 -80q19 -46 63 -46q39 0 71 93
q14 48 25 83t18 58zM162 328q0 -41 -39 -116q-42 -82 -77 -82q0 25 38 119q22 55 30 69q16 31 32 31t16 -21z" />
    <glyph glyph-name="l" unicode="l" horiz-adv-x="199" 
d="M102 -14q46 0 92 139q40 117 40 156q0 15 -9 15t-13 -21q-5 -19 -8.5 -33t-5.5 -24q-57 -198 -94 -198q-19 0 -41 30q-32 44 -32 114q0 11 8 22q6 8 9.5 13t4.5 7q45 64 78 181q32 114 32 195q0 100 -66 100q-29 0 -34 -68q-26 -77 -45 -215q-18 -132 -18 -220
q0 -64 21 -119q29 -74 81 -74zM116 645q16 -16 16 -91q0 -55 -30 -155q-31 -108 -69 -167q0 140 83 413z" />
    <glyph glyph-name="m" unicode="m" horiz-adv-x="416" 
d="M451 284q0 12 -8 12q-7 0 -10 -8q-2 -10 -4 -17.5t-4 -12.5q-34 -125 -39 -136q-32 -93 -59 -93q-24 0 -24 76q0 82 25 195q-26 16 -39 16q-19 0 -21 -11q5 -18 -27 -131q-33 -120 -54 -120q-10 0 -10 48q0 25 2.5 59t7.5 77q0 67 -30 67t-55 -93q-3 -11 -9 -40t-14 -75
q-6 -34 -28 -69q-4 19 -5.5 40.5t-1.5 44.5q0 13 1.5 31t5.5 42t5.5 42t1.5 31q0 39 -25 39q-28 0 -23 -69l9 -23q0 -11 -0.5 -26.5t-1.5 -36.5q-1 -20 -1 -36v-26q0 -97 31 -97q28 0 51 69q3 11 10.5 43t18.5 86q15 70 26 70q7 0 7 -9q0 -16 -1.5 -38.5t-3.5 -53.5
t-3.5 -53.5t-1.5 -38.5q0 -59 35 -59q24 0 47 56q5 14 15.5 47.5t24.5 86.5l3 -81l1 -27q7 -84 51 -84q35 0 64 75q60 156 60 211z" />
    <glyph glyph-name="n" unicode="n" horiz-adv-x="283" 
d="M318 281q0 15 -8 15q-9 0 -16 -31t-15.5 -61.5t-18.5 -61.5q-34 -106 -58 -106q-28 0 -28 108q0 14 2.5 45.5t7.5 81.5q5 51 8 65t3 -8q0 29 -51 32q-11 -8 -14 -50q-2 -34 -11 -72t-23 -83q-7 -18 -21 -76q-8 -26 -13 -26q-16 0 -16 72v22q0 14 1 32t1 31v23q0 12 6 32
q7 20 7 26q0 18 -20 18q-19 0 -25 -16q-4 -9 -5 -36l9 -19l-3 -37q-3 -36 0 -80l4 -75q7 -42 38 -42q21 0 31 43q20 81 33.5 129.5t18.5 66.5q3 -67 6 -109.5t7 -62.5q14 -71 51 -71q29 0 77 145q35 108 35 136z" />
    <glyph glyph-name="o" unicode="o" horiz-adv-x="247" 
d="M282 287q0 9 -9 9q-8 0 -12 -18q-13 -64 -21 -79q-17 -39 -52 -39q-11 0 -25 11q0 121 -8 145q-8 23 -37 45q-28 22 -54 22q-27 0 -34 -34q-4 -17 -6 -27t-4 -15q-5 -5 -6 -14v-7q0 -4 1 -11t1 -9q0 -1 0 2q-16 -33 -16 -128q0 -149 73 -149q29 0 49 32q5 8 11.5 24
t14.5 39q4 17 7 31t5 25q30 -12 35 -12q38 0 61 53q26 60 26 104zM131 139q0 -27 -24 -79q-18 -40 -29 -40q-44 0 -44 108q0 42 15 123q16 94 37 94q32 0 32 -35q0 -7 -1.5 -22t-1.5 -22q0 -11 2 -26.5t6 -36.5t6 -37t2 -27z" />
    <glyph glyph-name="p" unicode="p" horiz-adv-x="260" 
d="M187 268q0 49 -14 71q-18 27 -64 27q-14 0 -39 -57q-17 -41 -27 -71v39v8t-1 9v10q0 5 1.5 16t1.5 17q0 28 -19 28q-16 0 -16 -13q0 -5 5 -10q1 -39 -4 -104.5t-16 -159.5q-11 -93 -17 -162.5t-6 -117.5q0 -119 34 -119q14 0 14 4q-10 24 -13 43q-4 23 -4 74
q0 66 4.5 123.5t14.5 107.5q6 -2 22 -27q14 -20 33 -20q64 0 92 118q18 76 18 166zM123 344q33 0 33 -78v-32v-9q0 -4 -1 -9v-12q0 -49 -18 -113q-23 -83 -58 -83q-18 0 -28 18q-9 15 -9 33q0 4 4.5 8.5t4.5 7.5q0 7 -20 18q-2 41 47 169l22 58q10 24 23 24z" />
    <glyph glyph-name="q" unicode="q" horiz-adv-x="221" 
d="M258 55q-9 1 -12.5 -3t-10.5 -22q-20 -52 -35 -96t-25 -79q-21 163 -21 309q0 30 1 59t3 58q2 6 2 8q0 10 -8 22t-18 12q-11 0 -12 -24q-24 56 -52 56q-43 0 -70 -123q-18 -89 -18 -158q0 -88 61 -88q24 0 43 37q11 24 37 104q-2 -38 12 -196q7 -78 10 -125.5t4 -65.5
q-1 -3 -1 -10q0 -21 27 -21q23 0 23 9v14q-18 58 -18 70t22 88q14 49 28 90t28 75zM121 272q0 -43 -27 -145q-30 -115 -56 -115q-19 0 -23 28q-1 6 -1.5 19.5t-0.5 33.5q0 85 22 166q16 61 40 61q12 0 20 -12q16 -26 26 -36z" />
    <glyph glyph-name="r" unicode="r" horiz-adv-x="224" 
d="M150 -2q26 0 70 131q39 118 39 152q0 15 -8 15q-11 0 -14 -23q-6 -47 -40 -144q-36 -105 -53 -105q-29 0 -29 47q0 17 2 41.5t6 56.5q4 33 6 57.5t2 41.5q0 29 -43 51q-42 22 -42 32q0 4 0.5 12t1.5 20q1 10 1.5 17.5t-0.5 13.5q-1 31 -21 31q-25 0 -25 -50q0 -11 8 -35
t8 -34q0 -26 -13 -71q-12 -47 -12 -63l13 -4q0 1 5 10.5t5 10.5q24 82 24 107q49 -25 49 -49l-2 -80q-2 -59 0 -93q1 -46 10 -61q21 -35 52 -35z" />
    <glyph glyph-name="s" unicode="s" horiz-adv-x="165" 
d="M110 82q0 37 -25 113q-24 79 -24 117q0 5 1.5 12.5t3.5 15.5t3.5 15t1.5 10q0 19 -29 19q-26 0 -26 -27q0 -66 -41 -221q6 -2 8 -2q16 0 26 34q8 29 14.5 50.5t10.5 35.5q10 -27 21 -63q20 -71 20 -105q0 -78 -46 -78q-20 0 -37 38q0 16 -7 16q-8 -2 -8 -21q0 -16 16 -32
q22 -25 52 -25q33 0 51 34q14 30 14 64z" />
    <glyph glyph-name="t" unicode="t" horiz-adv-x="147" 
d="M304 480v7q-51 2 -85.5 2.5t-54.5 1.5q-40 1 -63.5 1.5t-31.5 0.5q4 18 7 33t5 28v21q-27 18 -40 18q-8 0 -11 -7l5 -18q-2 -26 -3 -44.5t-2 -29.5q-55 -2 -91 -3.5t-55 -1.5q-12 0 -12 -7q0 -6 11 -11q14 -6 21 -14l23 7q84 -1 101 -3q-13 -123 -19.5 -195.5t-6.5 -95.5
q0 -46 11 -93q17 -68 51 -68q39 0 83 131q35 108 35 141q0 15 -10 15q-7 0 -17 -45q-49 -208 -88 -208q-24 0 -28 61q-1 11 -1.5 39t-0.5 73q0 78 24 246l48 -1q24 -1 46 -1h42q19 0 57 7q46 8 50 13z" />
    <glyph glyph-name="u" unicode="u" horiz-adv-x="276" 
d="M194 11q41 0 83 133q34 105 34 140q0 12 -8 12t-12 -15q-24 -89 -36 -132q-31 -106 -58 -106q-29 0 -29 95q0 18 2 41t6 51q5 34 7.5 52.5t2.5 22.5q1 9 6.5 20.5t5.5 16.5q0 16 -29 16q-17 2 -20 -24q1 4 1 -6v-32q0 -8 -1.5 -18.5l-3.5 -24.5q-3 -19 -4.5 -30t-2.5 -13
q-11 -78 -33 -130q-4 -10 -8 -19.5t-9 -19.5q-13 -25 -28 -25q-19 0 -19 44q0 54 3.5 100.5t10.5 85.5q1 2 2.5 7.5t3.5 15.5q4 13 4 23t-8 18.5t-18 8.5q-12 0 -17 -8q-7 -11 -11 -113q-2 -41 -3 -71.5t-1 -51.5q0 -29 12 -54q15 -30 41 -30q29 0 47 31q8 20 16 38.5
t15 35.5q14 -46 18 -52q16 -33 38 -33z" />
    <glyph glyph-name="v" unicode="v" horiz-adv-x="229" 
d="M170 287q0 83 -27 83q-7 0 -7 -6q0 3 7 -29v-73q0 -39 -24 -124q-26 -92 -41 -92q-30 0 -30 124q0 8 1 21t3 30t3.5 30.5t1.5 21.5q0 31 -31 32q-8 0 -10 -3t-2 -6t2 -11v-21t-1 -30t-1 -30v-20q0 -56 9 -101q15 -74 51 -74q39 0 70 121q26 101 26 157z" />
    <glyph glyph-name="w" unicode="w" horiz-adv-x="319" 
d="M325 245q-13 -52 -47 -52q-24 0 -25 18l-5 145q-2 19 -21 30q-14 -6 -17 -33q-1 -4 -1 -17v-35q0 -8 1.5 -19.5t3.5 -27.5q6 -32 6 -45q0 -10 -3 -28.5t-8 -45.5q-20 -92 -37 -92q-16 0 -22 16q-14 76 -14 95q0 11 2 37t6 68q0 3 2 9.5t3.5 13.5t3 13.5t1.5 10.5
q0 19 -22 19q-16 0 -25 -10l3 -12q2 -6 2 -15q0 -10 -1.5 -23.5t-3.5 -32.5t-3 -32.5t-1 -23.5q0 -88 -43 -149q-33 0 -33 85q0 124 37 219q-17 17 -29 17q-13 0 -19 -13q-1 -2 -3.5 -25t-6.5 -68t-6 -70.5t-2 -33.5q0 -140 55 -140q38 0 60 100q24 -82 61 -82q34 0 49 50
l20 111q28 -15 50 -15q24 0 44 51q17 43 17 72q0 11 -8 11q-9 0 -15 -22q-2 -8 -3 -15t-3 -14z" />
    <glyph glyph-name="x" unicode="x" horiz-adv-x="230" 
d="M265 282q0 14 -10 14q-7 0 -13 -25q-2 -8 -3.5 -15.5t-3.5 -15.5q-54 -208 -110 -208q-7 0 -14.5 4.5t-13.5 11.5t-10 15t-4 15q25 80 80 185q42 81 42 88q0 8 -18 19q-12 -24 -21.5 -42t-16.5 -31q-53 -119 -75 -174q-12 26 -9 124q1 24 1.5 38.5t0.5 19.5q0 49 -25 49
q-16 0 -20 -30q-5 -30 -6 -45l14 -17q-3 -26 6 -98q7 -63 15 -100q-37 -95 -37 -109q0 -11 26 -14q19 88 22 95q38 -32 58 -32q59 0 107 133q38 105 38 145z" />
    <glyph glyph-name="y" unicode="y" horiz-adv-x="240" 
d="M292 -91q3 4 3 9q0 23 -44 23q-13 0 -45 -8q-14 -4 -24 -6.5t-15 -3.5l-2 44q-3 61 -3 90q-1 84 1 134t7 69q21 75 21 98q0 14 -16 13q-24 -1 -27 -26q-8 -67 -14 -112t-9 -70q-39 -150 -65 -150t-26 81q0 21 2 51t6 70l11 102q2 14 -15 14q-19 0 -26 -45l-2 -30t-2 -29
q-9 -93 -9 -142q0 -35 13 -61q16 -33 48 -33q24 0 41 32q9 19 15.5 33t10.5 24q15 -60 15 -167q-65 -14 -136 -64q-90 -65 -90 -138q0 -24 8.5 -45t23.5 -36.5t35.5 -24.5t44.5 -9q147 0 147 229q0 6 -0.5 16.5t-1 21.5t-1 21.5t-0.5 16.5q45 15 61 15q7 0 21.5 -1.5
t37.5 -5.5zM145 -109v-72q0 -71 -27 -129q-34 -73 -99 -73q-15 0 -28.5 7t-23.5 19t-15.5 27t-5.5 31q0 56 52 107q59 59 147 83zM-79 24q-5 -2 -11 -5.5t-6 -11.5q0 -9 23 -9q25 0 69 131q39 121 39 152q0 15 -8 15t-14 -23q-10 -42 -20 -79t-21 -69q-33 -101 -51 -101z
" />
    <glyph glyph-name="z" unicode="z" horiz-adv-x="274" 
d="M283 -68q9 4 9 13q0 19 -36 19q-33 0 -76 -9q-16 36 -31 53q-14 15 -50 35q90 115 90 260q0 45 -24 74.5t-66 29.5q-38 0 -65 -63q-20 -48 -20 -75q0 -16 12 -16q4 0 9 30t25 58q25 33 53 33q44 0 44 -69q0 -89 -25 -148q-19 -46 -69 -103q-51 1 -51 -25q0 -25 35 -25
q15 0 41 23q49 -27 61 -79q-212 -92 -212 -210q0 -48 37 -81q37 -34 86 -34q68 0 106 83q30 64 30 141q0 4 -2.5 25.5t-7.5 61.5q22 6 45 6q25 0 52 -8zM169 -147q0 -69 -26 -129q-33 -75 -96 -75q-33 0 -52 21.5t-19 54.5q0 66 60 128q58 58 125 73q4 -17 6 -35t2 -38z" />
    <glyph glyph-name="braceleft" unicode="{" horiz-adv-x="311" 
d="M272 649q1 15 -18 15q-7 0 -21.5 -1.5t-21.5 -1.5q-96 0 -88 -69q3 -29 2.5 -69t-4.5 -92q-6 -80 -20 -119q-15 -11 -55 -31q-14 -8 -14 -28q0 -17 14 -22q11 -3 26 -16t20 -23q20 -42 22 -99q0 -17 2 -43.5t6 -61.5q9 -71 9 -103q0 -34 84 -34q7 0 20.5 -1.5t20.5 -1.5
q8 2 8 7q0 12 -13 15h-35q-20 0 -37 11.5t-17 30.5q0 112 -15 219q-5 35 -14 52q-2 5 -9.5 13t-18.5 21q-7 5 -13 10t-11 9q-13 10 -13 16q0 9 11 18q3 4 9.5 8.5t14 9.5t14 9.5t9.5 8.5q30 41 33 152q5 131 12 158q6 20 45 20q37 0 46.5 -0.5t-7.5 -1.5q15 1 17 15z" />
    <glyph glyph-name="bar" unicode="|" horiz-adv-x="270" 
d="M203 666q0 18 -11 18q-29 0 -51 -255q-10 -112 -15 -211t-5 -188q0 -139 27 -203q1 -4 6 -4l24 -3q2 -1 2.5 3.5t1.5 5.5q9 12 9 27q0 11 -11 41q-5 14 -7.5 24.5t-3.5 17.5q-6 79 -6 179q0 65 2.5 134t7.5 144q4 63 7.5 101t6.5 52q16 77 16 117z" />
    <glyph glyph-name="braceright" unicode="}" horiz-adv-x="311" 
d="M269 260q0 19 -14 22q-5 1 -12 5.5t-13.5 10.5t-12 12t-8.5 11q-20 42 -22 99q0 34 -9 106q-4 35 -6 61t-2 44q0 32 -84 32q-7 0 -20.5 1.5t-20.5 1.5q-8 -2 -8 -7q0 -12 13 -15h35q20 0 37 -11.5t17 -30.5q0 -114 15 -220q5 -35 14 -52q2 -5 9.5 -13t18.5 -21
q14 -11 25.5 -20t11.5 -15q0 -9 -11 -18q-3 -4 -9.5 -8.5t-14 -9.5t-14 -9.5t-9.5 -8.5q-30 -41 -33 -152q-4 -130 -12 -157q-6 -20 -45 -20q-37 0 -46.5 0.5t7.5 1.5q-15 -1 -17 -15q-2 -15 18 -15q7 0 21.5 1.5t21.5 1.5q95 0 88 69q-3 29 -2.5 69t4.5 91q6 80 20 119
q15 11 55 31q14 8 14 28z" />
    <glyph glyph-name="asciitilde" unicode="~" horiz-adv-x="504" 
d="M463 254q0 20 -19 20q-18 2 -19 -16q-8 -71 -77 -78q-27 -3 -50 18q-2 2 -11.5 12t-25.5 29q-39 45 -82 45q-42 0 -87 -39t-45 -80q0 -13 18 -13q8 0 13 5q13 19 22.5 32.5t16.5 23.5q24 33 65 33q20 0 51 -34q22 -23 34.5 -35t14.5 -14q28 -21 66 -19q45 1 80 33t35 77z
" />
    <glyph glyph-name="quotesinglbase" unicode="&#x201a;" horiz-adv-x="126" 
d="M122 95q0 18 -25 34q-38 -122 -57 -162q1 -16 16 -16q10 0 27 45q39 76 39 99z" />
    <glyph glyph-name="florin" unicode="&#x192;" horiz-adv-x="419" 
d="M414 673q0 17 -18.5 28.5t-36.5 11.5q-34 0 -77 -33q-22 -16 -36.5 -32t-22.5 -32q-24 -46 -45 -215q-25 -3 -43.5 -5t-31.5 -3q-9 -2 -9 -5q0 -11 82 -11q-8 -93 -17.5 -186.5t-22.5 -189.5q-29 -209 -104 -209q-26 0 -35 21q-3 10 -5.5 21t-6 20t-8.5 14.5t-13 5.5
q-12 0 -20 -10t-8 -22q0 -27 19 -52q18 -27 43 -27q126 0 176 203q21 103 30 156q13 78 21 141.5t11 113.5q15 1 30 1t30 1q41 3 55 14q-14 8 -112 8l6 54t5 53q8 63 21 106q19 66 39 66q13 0 31 -20q19 -19 39 -19q10 0 22 11t12 21z" />
    <glyph glyph-name="quotedblbase" unicode="&#x201e;" horiz-adv-x="248" 
d="M200 102q1 4 -18 18q-11 -25 -19 -44t-12 -33l-34 -71q-18 -38 -18 -44q0 -12 12 -12q9 0 20 21q10 20 20 39.5t21 39.5q20 43 28 86zM147 116q1 6 -18 18q-11 -28 -18 -48t-11 -34q-52 -86 -52 -101q0 -14 14 -14q9 0 39 64q43 90 46 115z" />
    <glyph glyph-name="ellipsis" unicode="&#x2026;" horiz-adv-x="600" 
d="M130 29q0 25 -30 25q-11 0 -20.5 -11.5t-9.5 -23.5q0 -28 30 -28t30 38zM530 29q0 25 -30 25q-11 0 -20.5 -11.5t-9.5 -23.5q0 -28 30 -28t30 38zM330 29q0 25 -30 25q-11 0 -20.5 -11.5t-9.5 -23.5q0 -28 30 -28t30 38z" />
    <glyph glyph-name="dagger" unicode="&#x2020;" horiz-adv-x="490" 
d="M421 404q18 10 37 21t39 24l-1 4q-92 -9 -176 -9l5 27q19 118 18 186l-6 1q-24 -14 -42.5 -24.5t-31.5 -17.5q1 -20 -2 -57.5t-9 -92.5l-2 -21h-80q-8 0 -24 -9l-22 -12q-9 -5 -22.5 -14.5t-32.5 -23.5l1 -3q42 14 101 14q14 0 70 -3q-23 -119 -54 -252.5t-73 -283.5
l-19 -71l6 -4l71 51l139 560q32 3 59.5 5.5t50.5 4.5z" />
    <glyph glyph-name="daggerdbl" unicode="&#x2021;" horiz-adv-x="552" 
d="M492 426q12 8 22.5 13.5t18.5 10.5l-1 2q-74 -3 -143 -3h-24l7 26q28 106 28 165q0 2 -0.5 7.5l-1.5 16.5l-2 1q-26 -17 -45 -28t-30 -18q0 -25 -4.5 -66.5t-14.5 -99.5q-15 1 -29 1.5t-27 0.5q-46 0 -80 -25q-11 -8 -18.5 -13l-10.5 -7l6 -2q15 3 35 3q-12 0 111 -9
q-25 -100 -46.5 -184.5t-41.5 -156.5q-14 2 -25 3t-18 1q-40 0 -93 -32q-6 -4 -12.5 -7.5t-13.5 -7.5l2 -4q30 6 58 6h15t25 -1q37 -2 50 -3q-31 -121 -32 -195q0 -22 4 -26q1 -1 4 1l75 47q-1 11 -1.5 18.5t-0.5 12.5q2 65 19 138q23 -1 35 -1.5t13 -0.5q34 0 56 8
q20 7 50 28l20 14q-16 -2 -31.5 -3t-32.5 -1q-14 0 -39.5 1.5t-60.5 3.5l9 36q12 51 29.5 118t40.5 151l9 36q43 -3 48 -3q45 0 89 27z" />
    <glyph glyph-name="circumflex" unicode="&#x2c6;" horiz-adv-x="190" 
d="M182 514q6 5 5 9q-2 16 -27 54q-25 37 -32 36q-13 0 -41 -27q-29 -27 -32 -41q-2 -9 5 -12q3 -1 7.5 1.5t9.5 7t10 9.5l8 8q16 16 30 16t24 -16q5 -10 9.5 -17.5l7.5 -12.5q10 -15 16 -15z" />
    <glyph glyph-name="perthousand" unicode="&#x2030;" horiz-adv-x="547" 
d="M444 629q0 6 -9.5 13.5t-15.5 7.5q-17 -8 -25 -25q-11 -22 -17 -27q-98 -91 -170 -91q-20 0 -55 16q-10 127 -71 127q-41 0 -65 -93q-16 -65 -16 -126q0 -41 17 -69q21 -32 61 -32q39 0 56 50q4 10 8.5 38t11.5 75q17 -4 37 -5.5t43 -1.5q17 0 46 15q30 16 39 17
q-32 -49 -68 -108t-76 -131q-104 -185 -122 -262q0 -9 6 -17.5t14 -8.5t10 9q12 83 131 293q58 102 105 172t84 108q41 44 41 56zM351 158q0 64 -12 93q-20 45 -73 45q-3 0 -10 1t-10 1q-2 -4 -5 -8t-7 -9q-39 -54 -39 -157q0 -137 76 -137q80 0 80 171zM122 521
q-2 -31 -2 -56q0 -24 1 -43q-5 -25 -17 -44q-15 -25 -35 -25q-32 0 -32 74q0 98 46 186q20 0 22 -23q1 -39 17 -69zM326 172q0 -52 -9 -95q-15 -70 -49 -70q-39 0 -39 96q0 20 3 43.5t8 50.5q14 74 38 74q48 0 48 -99zM524 158q0 64 -12 93q-20 45 -73 45q-3 0 -10 1t-10 1
q-2 -4 -5 -8t-7 -9q-39 -54 -39 -157q0 -137 76 -137q80 0 80 171zM499 172q0 -52 -9 -95q-15 -70 -49 -70q-39 0 -39 96q0 20 3 43.5t8 50.5q14 74 38 74q48 0 48 -99z" />
    <glyph glyph-name="guilsinglleft" unicode="&#x2039;" horiz-adv-x="240" 
d="M116 277q63 47 98 92l-11 13h-3q-31 -34 -64.5 -66t-71.5 -62l-28 -23v-9q53 -57 91 -160h4l69 40q-37 95 -98 165z" />
    <glyph glyph-name="OE" unicode="&#x152;" horiz-adv-x="950" 
d="M375 427q0 -410 -187 -410q-135 0 -135 221q0 113 47 256q57 172 134 172q79 0 115 -86q26 -63 26 -153zM942 108q0 21 -35 21v-19q3 0 3 -2q0 -8 -66 -42q-26 -14 -93 -24q-59 -10 -97 -10q-96 0 -169 27q-102 37 -102 118q6 25 9 39t4 16q32 65 145 109q99 38 182 38
q12 0 35 -14q14 5 16 26q1 21 -12 30q-8 1 -29.5 -0.5t-56.5 -3.5q-80 -6 -93 -6q-44 0 -80 13q-51 19 -51 54q0 81 151 124q106 30 215 30q31 0 48 -9q22 -17 34 -28q12 0 12 30q0 35 -35 46q-18 7 -64 7q-126 0 -235 -36q-154 -51 -154 -152q0 -46 29 -73q24 -21 73 -38
q-80 -41 -120 -80q6 57 6 123q0 262 -199 275q-5 0 -13 -5q-18 8 -23 8q-21 0 -45 -30q-8 -11 -16.5 -23t-16.5 -24q-49 -68 -76 -186q-23 -103 -23 -201q0 -99 47 -170q53 -80 148 -80q111 0 169 139q19 -52 79 -89q82 -49 207 -49q69 0 168 31q124 39 124 90z" />
    <glyph glyph-name="quoteleft" unicode="&#x2018;" horiz-adv-x="126" 
d="M98 477q-18 60 -30.5 101.5t-19.5 66.5q-5 15 -35 14q-2 -14 19 -76q14 -43 23 -70t11 -38q1 -9 16 -9q19 0 16 11z" />
    <glyph glyph-name="quoteright" unicode="&#x2019;" horiz-adv-x="126" 
d="M122 645q0 18 -25 34q-37 -120 -57 -163q1 -16 16 -16q10 0 27 45q39 78 39 100z" />
    <glyph glyph-name="quotedblleft" unicode="&#x201c;" horiz-adv-x="248" 
d="M186 495q-13 47 -24 85t-20 67q-3 13 -4.5 21.5t-5.5 13t-10.5 6t-18.5 1.5q11 -46 23 -91.5t25 -90.5q3 -13 13 -14q2 0 7.5 0.5t14.5 1.5zM137 477q-17 57 -29.5 98.5t-20.5 69.5q-5 14 -35 14q-2 -19 19 -79q15 -43 23.5 -69t10.5 -36q1 -10 15 -10q17 0 17 12z" />
    <glyph glyph-name="quotedblright" unicode="&#x201d;" horiz-adv-x="248" 
d="M200 652q1 4 -18 18q-11 -25 -19 -44t-12 -33l-34 -72q-18 -38 -18 -44q0 -12 12 -12q10 0 20 22q10 20 20 39.5t21 39.5q20 43 28 86zM147 666q1 6 -18 18q-11 -28 -18 -48t-11 -34q-52 -88 -52 -102t14 -14q9 0 39 65q43 90 46 115z" />
    <glyph glyph-name="bullet" unicode="&#x2022;" horiz-adv-x="396" 
d="M342 335q0 70 -18 102q-27 47 -100 47q-174 0 -174 -186q0 -57 30 -97q33 -47 86 -47q74 0 125 53q51 54 51 128z" />
    <glyph glyph-name="endash" unicode="&#x2013;" horiz-adv-x="300" 
d="M294 210q0 7 -16 4q-10 -2 -17 -2.5t-12 -1.5q-60 -2 -102.5 -3t-68.5 -2q-41 -1 -52 -5q-22 -4 -22 -22q0 -7 19 -6q14 2 25 2.5t18 1.5q41 2 88 3t102 2q12 2 25 10.5t13 18.5z" />
    <glyph glyph-name="emdash" unicode="&#x2014;" horiz-adv-x="600" 
d="M586 210q0 7 -16 4q-89 -15 -234 -12q-228 3 -236 3q-20 -1 -33 -2t-19 -3q-22 -4 -22 -22q0 -7 19 -6q14 2 25 2.5t18 1.5q158 2 272 3t188 2q12 2 25 10.5t13 18.5z" />
    <glyph glyph-name="tilde" unicode="&#x2dc;" 
d="M160 514q4 -2 7 -2q13 0 27 19t14 45q0 13 -4 16l-1 -1.5t-3 -3.5q-23 -38 -34 -38q-4 0 -6 1q-12 3 -21.5 13.5t-17.5 19.5q-35 30 -52 26q-26 -6 -26 -45q0 -18 5 -18q4 0 9 15q6 20 19 20q18 0 38 -27q14 -15 26 -25t20 -15z" />
    <glyph glyph-name="trademark" unicode="&#x2122;" horiz-adv-x="944" 
d="M910 228q-40 9 -52 83q-2 16 -3.5 42.5t-1.5 64.5q0 46 9 147q10 114 21 137q-2 12 -28 17q-11 2 -37 4q-9 -4 -10 -31q-1 -20 -1 -32q0 -11 -1 -13q-8 -42 -21.5 -92t-33.5 -110q-44 -134 -64 -134q-28 0 -45 104q-7 42 -10 90t-3 103q0 83 8 104q-31 23 -45 23
q-24 0 -24 -34q0 -73 -34 -185q-74 -245 -151 -245q-10 0 -59 10l-9 -4q27 -38 65 -38q56 0 103 78q25 42 56 141q30 97 45 120q12 -87 18 -129.5l6 -42.5q24 -137 73 -137q38 0 85 147q17 56 29 97t20 69q2 5 2.5 7.5t1.5 4.5q0 -12 -0.5 -30t-1.5 -42q-1 -23 -1 -41v-30
q0 -34 3 -68t10 -69q20 -107 61 -107q9 0 20 21zM522 707q2 14 -22 14q-22 0 -62.5 -1.5t-100.5 -3.5q-74 -3 -124.5 -6.5t-79.5 -7.5q-77 -11 -88 -12q-38 -11 -38 -42q0 -59 79 -59q55 0 112 16q17 4 37 34q-72 -22 -141 -22q-60 0 -60 19q0 28 155 39q42 3 69 3
q1 -5 1 -11v-14q0 -28 -3 -69t-8 -97q-5 -55 -7.5 -96.5t-2.5 -69.5q0 -42 15 -57q13 -6 24 -9q-6 52 -5 72q5 95 15 184t25 174q46 4 93.5 6t98.5 2q16 0 18 14z" />
    <glyph glyph-name="guilsinglright" unicode="&#x203a;" horiz-adv-x="240" 
d="M50 62q33 38 74 76t91 75v8q-53 51 -94 161h-4l-69 -41l7 -13q29 -57 52 -93.5t40 -55.5q-81 -68 -111 -104l11 -13h3z" />
    <glyph glyph-name="oe" unicode="&#x153;" horiz-adv-x="476" 
d="M131 139q0 -27 -24 -79q-18 -40 -29 -40q-44 0 -44 108q0 42 15 123q16 94 37 94q32 0 32 -35q0 -7 -1.5 -22t-1.5 -22q0 -11 2 -26.5t6 -36.5t6 -37t2 -27zM476 286q0 12 -13 12q-4 0 -19 -57q-60 -228 -108 -228q-18 0 -34 21q-17 22 -17 39q25 39 42 77q43 92 43 166
q0 21 -18 36t-39 15q-27 0 -48 -75l-2 -6q-1 -2 -1 -4t-1 -4q-13 -64 -21 -79q-17 -39 -52 -39q-11 0 -25 11q0 121 -8 145q-8 23 -37 45q-28 22 -54 22q-27 0 -34 -34q-4 -17 -6 -27t-4 -15q-5 -5 -6 -14v-7q0 -4 1 -11t1 -9q0 -1 0 2q-16 -33 -16 -128q0 -149 73 -149
q29 0 49 32q5 8 11.5 24t14.5 39q4 17 7 31t5 25q30 -12 35 -12q29 0 50 32q-1 -10 -1 -20v-21q0 -46 21 -85q26 -47 68 -47q30 0 53 29q37 51 75 201q15 60 15 67zM343 305q0 -39 -19 -105q-21 -76 -44 -90q0 105 37 216q4 13 12 13q14 0 14 -34z" />
    <glyph glyph-name="Ydieresis" unicode="&#x178;" horiz-adv-x="402" 
d="M389 636q-1 24 -34 25q-27 1 -28 -18q-5 -96 -12.5 -177t-15.5 -150q-14 -108 -58 -195q-50 -99 -105 -99q-81 0 -81 177q0 78 7.5 159.5t21.5 169.5q1 3 2.5 10.5t5.5 19.5q5 22 5 28q-41 34 -49 34q-18 0 -18 -31q0 -6 1 -19t1 -19q0 -59 -12 -177q-5 -60 -8 -104
t-3 -73q0 -81 27 -133q34 -66 109 -66q59 0 103 78q17 30 51 130q4 -54 5.5 -93.5t1.5 -65.5q0 -291 -175 -291q-39 0 -97 46t-67 46q-26 0 -26 -18q0 -32 99 -69q88 -32 128 -32q79 0 135 83q49 74 49 158q0 42 -6 128q-2 43 -3.5 75t-1.5 54q0 77 4 141t12 118
q4 26 12 63.5t20 86.5zM296 807q0 37 -34 37q-10 0 -20.5 -11t-10.5 -21q0 -16 12 -29t28 -13q25 0 25 37zM219 806q0 37 -34 37q-10 0 -20.5 -11t-10.5 -21q0 -16 12 -29t28 -13q25 0 25 37z" />
    <glyph glyph-name="exclamdown" unicode="&#xa1;" horiz-adv-x="201" 
d="M86 9q19 -25 38 -25q20 0 24 10q8 59 18 211q5 72 7.5 118.5t2.5 67.5q0 50 -3 73q-5 33 -24 67q-6 10 -20 2q4 -20 5.5 -51t1.5 -75q0 -260 -50 -398zM114 626q0 -18 7 -32q7 -19 23 -19q7 0 19 21q13 20 13 30q0 14 -11.5 24t-25.5 10q-9 0 -17 -12.5t-8 -21.5z" />
    <glyph glyph-name="cent" unicode="&#xa2;" horiz-adv-x="245" 
d="M179 277q0 13 -22 17q-27 -67 -77 -67q-29 0 -42 39q-9 27 -9 62q0 51 16 109q18 68 40 68q1 0 24 -24q22 -24 40 -24q16 0 16 14q0 26 -33 52q-15 8 -26 14t-19 9v51q0 6 -13 6q-6 0 -9 -29q-1 -11 -1.5 -20t0.5 -15q-64 -46 -64 -193q0 -54 9 -78q10 -30 48 -60v-18
q1 -7 1 -12v-7q2 -32 9 -32q13 0 13 37v16q-1 5 -1 7v5q37 6 58 17q13 8 27 26q15 19 15 30z" />
    <glyph glyph-name="sterling" unicode="&#xa3;" horiz-adv-x="480" 
d="M325 539q-55 -54 -123 -206q-37 -8 -65 -8q-6 0 -18.5 1.5t-19.5 1.5q-10 0 -18.5 -9t-8.5 -20q0 -26 35 -26q10 0 27.5 2t42.5 6q-25 -53 -42.5 -88t-28.5 -52q-34 -54 -101 -94q-33 -20 -33 -40q0 -24 27 -24q12 0 45 13q153 57 238 57q35 0 46 3q17 5 17 25
q0 28 -47 28q-72 0 -178 -36q58 70 121 221q14 4 27.5 7t27.5 7q35 8 57 8q9 0 22.5 -2.5t18.5 -2.5q20 0 20 24q0 33 -50 33q-30 0 -99 -19q81 192 184 192q5 0 14.5 -1.5t13.5 -1.5q21 0 21 21q0 31 -48 30q-77 -2 -125 -50z" />
    <glyph glyph-name="currency" unicode="&#xa4;" horiz-adv-x="600" 
d="M524 42l39 40l-96 99q43 53 43 130q0 72 -43 130l96 99l-39 40l-96 -100q-55 46 -127 46q-71 0 -129 -46l-96 100l-39 -40l98 -99q-45 -53 -45 -130q0 -75 45 -130l-98 -99l39 -40l96 100q53 -44 129 -44q74 0 127 44zM301 477q65 0 112 -50t47 -116t-47 -116
q-47 -48 -112 -48q-68 0 -114 48q-47 50 -47 116t47 116t114 50z" />
    <glyph glyph-name="yen" unicode="&#xa5;" horiz-adv-x="435" 
d="M211 252q-65 -15 -98 -15q-6 0 -18.5 1.5t-19.5 1.5q-10 0 -18.5 -8t-8.5 -17q0 -18 23 -21q25 -3 82 6l25 4l-22 -30l-36 -8q-27 -6 -65 -6q-6 0 -18.5 1t-19.5 1q-10 0 -18 -8t-8 -16q0 -19 22 -22q25 -3 110 11q-97 -132 -92 -155q4 -22 28 -19q16 1 31 30
q20 35 45 74t56 83q52 12 80 12q9 0 22.5 -2t18.5 -2q20 0 20 20q0 28 -50 28q-19 0 -54 -7l23 30q58 11 78 11q9 0 22.5 -2t18.5 -2q20 0 20 20q0 28 -50 28q-8 0 -21.5 -1.5t-30.5 -5.5q17 23 35 45t35 45q70 88 138 153q18 16 36.5 32t18.5 30q0 13 -13 22q-11 8 -38 -8
q-16 -9 -79 -77q-37 -39 -73 -81.5t-71 -88.5q-7 79 -17 132.5t-23 81.5q-8 15 -26 15q-27 -3 -27 -16q0 -2 2 -6q37 -53 38 -264z" />
    <glyph glyph-name="section" unicode="&#xa7;" horiz-adv-x="490" 
d="M437 420q17 15 17 40q0 34 -29 56.5t-74 22.5q-33 0 -59 -13q-13 -6 -53 -31q-29 -19 -48.5 -32.5t-29.5 -23.5q-31 -31 -31 -69t45 -78l-25 -14q-27 -16 -45 -29.5t-29 -25.5t-15.5 -24t-4.5 -26q0 -58 109 -121q119 -68 119 -134q0 -71 -83 -71q-60 0 -102 47
q45 31 45 54q0 19 -18 19q-14 0 -54 -32q-44 -35 -44 -60q0 -33 29.5 -55t74.5 -22q57 0 128 53q2 2 4 3t3 2l36 22q22 14 38 40t16 48q0 43 -49 79q69 35 95 61.5t26 58.5q0 62 -116 125q-72 39 -96 72q-13 19 -13 49q0 81 78 81q64 0 97 -55q-5 -5 -10 -9.5t-9 -7.5
q-26 -20 -26 -34q0 -18 19 -18q11 0 39 17q26 16 45 35zM239 253q33 -19 55.5 -34t34.5 -28q25 -25 25 -57q0 -46 -53 -84q-11 8 -23.5 15t-26.5 15q-34 19 -57 34.5t-37 29t-20 27t-6 28.5q0 48 52 87q13 -8 27 -16.5t29 -16.5z" />
    <glyph glyph-name="dieresis" unicode="&#xa8;" horiz-adv-x="152" 
d="M162 554q0 37 -34 37q-10 0 -20.5 -11t-10.5 -21q0 -16 12 -29t28 -13q25 0 25 37zM85 553q0 37 -34 37q-10 0 -20.5 -11t-10.5 -21q0 -16 12 -29t28 -13q25 0 25 37z" />
    <glyph glyph-name="copyright" unicode="&#xa9;" horiz-adv-x="768" 
d="M755 370q0 132 -100 229q-101 98 -232 98q-175 0 -305 -160q-118 -146 -118 -311q0 -135 89 -227q90 -91 226 -91q164 0 298 129q142 138 142 333zM722 372q0 -168 -119 -298q-121 -133 -289 -133q-121 0 -202 81q-80 83 -80 203q0 153 111 291q120 149 281 149
q120 0 208 -88q90 -87 90 -205zM586 254q4 7 4 13q0 24 -24 24q-14 1 -21 -12q-48 -82 -129 -136q-71 -47 -118 -47q-116 0 -116 116q0 115 97 194q92 74 209 74q15 0 20 -12q1 -4 1.5 -12t0.5 -22q0 -7 6.5 -15t12.5 -8q26 0 26 34q0 45 -5 60q-11 26 -42 26
q-156 0 -268 -106q-104 -98 -104 -213q0 -162 162 -162q56 0 137 51q94 58 151 153z" />
    <glyph glyph-name="ordfeminine" unicode="&#xaa;" horiz-adv-x="317" 
d="M173 475l12 1.5t5 0.5q40 0 37 -71q-59 -99 -102 -99q-24 0 -24 29q0 13 5.5 30.5t15 36.5t23 37.5t28.5 34.5zM202 343q-1 -11 -1 -19q0 -7 -1 -12q2 -59 39 -59q22 0 69 27l-4 4q-8 -4 -17 -4q-36 0 -36 52q0 26 19 101l-23 -7q9 25 9 45q0 42 -24 42q-42 0 -110 -71
q-72 -75 -72 -136q0 -33 32 -33q39 0 105 57zM303 225h-256v-25h256v25z" />
    <glyph glyph-name="guillemotleft" unicode="&#xab;" horiz-adv-x="427" 
d="M289 264q78 61 111 102l-11 15h-4q-69 -76 -162 -151v-9q52 -59 90 -159h8l66 39q-38 94 -98 163zM119 270q81 66 104 93l-13 15h-6q-38 -38 -78.5 -75.5t-83.5 -73.5v-5q61 -80 84 -162h12l63 35q-29 80 -95 162z" />
    <glyph glyph-name="logicalnot" unicode="&#xac;" horiz-adv-x="600" 
d="M499 108h48v273h-494v-50h446v-223z" />
    <glyph glyph-name="registered" unicode="&#xae;" horiz-adv-x="768" 
d="M761 371q0 132 -100 229q-101 98 -232 98q-176 0 -305 -160q-119 -148 -119 -311q0 -136 90 -227t226 -91q164 0 298 129q142 139 142 333zM728 373q0 -168 -119 -298q-121 -133 -289 -133q-121 0 -202 81q-80 83 -80 203q0 153 111 291q120 149 281 149q120 0 208 -88
q90 -87 90 -205zM625 444q0 48 -51 78q-43 25 -94 25q-47 0 -191 -24q-5 18 -14 23q-6 3 -27 6q-2 -15 -2.5 -27t-1.5 -21q-11 -5 -26 -12t-35 -17q-58 -28 -58 -50q0 -17 11 -17q5 0 12 5q-2 2 -3.5 4t-2.5 3q0 8 46 30q44 20 58 23q0 -7 -3 -40t-3 -43q0 -54 -6 -172
q-2 -56 -3.5 -98.5t-0.5 -73.5q0 -15 7 -28q9 -17 22 -17q8 0 13 11q-7 34 -8.5 64.5t0.5 56.5q1 5 1 9v7v45q1 33 14 33q4 0 9 -6q9 -15 16 -23q85 -104 145 -144q22 -15 48 -15q25 13 35 21q0 6 -6 6q-4 0 -13 -3t-14 -3q-25 0 -54 26q-11 11 -21.5 23t-21.5 23
q-17 17 -40 53q-25 39 -29 57q72 18 183 79q31 17 67 53q42 43 42 70zM574 460q0 -40 -46 -86q-37 -37 -81 -59q-32 -16 -95 -36q-29 -8 -49 -13t-31 -7q0 12 1.5 30.5t3.5 43.5q4 42 7.5 80t5.5 72q111 35 192 35q92 0 92 -60z" />
    <glyph glyph-name="degree" unicode="&#xb0;" horiz-adv-x="399" 
d="M236 378q60 0 104 44q43 43 43 106t-43 106q-44 44 -104 44t-104 -44q-43 -43 -43 -106t43 -106q44 -44 104 -44zM235 641q46 0 79 -33t33 -80q0 -48 -32 -80t-80 -32q-46 0 -78 32q-32 34 -32 80t32 80q33 33 78 33z" />
    <glyph glyph-name="plusminus" unicode="&#xb1;" horiz-adv-x="667" 
d="M357 323h238v48h-238v240h-48v-240h-237v-48h237v-238h48v238zM72 -73h523v48h-523v-48z" />
    <glyph glyph-name="acute" unicode="&#xb4;" 
d="M224 582q0 5 -4 12t-16 9q-22 4 -34 -15q-9 -8 -15 -14l-9 -9q-25 -24 -25 -31q0 -5 6 -12l5 -8l46 27q7 4 11.5 6t6.5 4q28 16 28 31z" />
    <glyph glyph-name="paragraph" unicode="&#xb6;" horiz-adv-x="549" 
d="M479 639h65l3 22h-238q-103 0 -167 -48t-76 -136q-1 -7 -1.5 -13.5t-0.5 -13.5q0 -58 30 -97q25 -31 82 -45q17 -5 41.5 -8t56.5 -5l-72 -511h31l120 855h96l-120 -855h30z" />
    <glyph glyph-name="cedilla" unicode="&#xb8;" horiz-adv-x="160" 
d="M78 -33q-3 1 -3 5q0 10 38 53l-31 2q-20 -29 -32.5 -47t-17.5 -25q-2 -6 -1 -10q1 -3 4 -6q14 -2 27 -4.5t15 -15.5q2 -17 -23 -24q-8 -2 -16 -4.5t-16 -4.5q-1 -4 0 -17q2 -14 6 -14q2 0 2 1q1 1 53 25q33 15 29 40q-4 30 -34 46z" />
    <glyph glyph-name="ordmasculine" unicode="&#xba;" horiz-adv-x="320" 
d="M119 272q56 0 109 49q54 49 54 101q0 58 -55 58q-50 0 -127 -47l1 -15q-37 -49 -37 -91q0 -55 55 -55zM70 200h201v20h-201v-20zM156 458q45 6 66 -20q16 -19 16 -45q0 -42 -46 -91q-15 -5 -26 -5q-26 0 -42.5 18t-16.5 45q0 45 49 98z" />
    <glyph glyph-name="guillemotright" unicode="&#xbb;" horiz-adv-x="427" 
d="M237 65q90 90 164 146v7q-64 79 -85 161h-12l-63 -34q27 -71 75 -138l18 -25l-26 -22q-56 -45 -89 -80l12 -15h6zM56 62q70 82 163 150v9q-53 57 -90 159h-7l-69 -40l5 -10q52 -105 94 -153l-18 -14q-40 -30 -94 -87l12 -14h4z" />
    <glyph glyph-name="questiondown" unicode="&#xbf;" horiz-adv-x="391" 
d="M-35 121q0 -53 24 -90q27 -42 77 -42q68 0 149 78q47 46 84 107q42 72 42 127q0 40 -27 34q1 -5 1 -10v-9q0 -48 -27 -94q-8 -15 -23.5 -36t-38.5 -49q-96 -117 -163 -117q-65 0 -65 71q0 67 54 144q34 45 59 78.5t42 55.5q55 74 55 131q0 56 -22 56q-13 0 -13 -9
q0 -3 6 -12.5t6 -19.5l-18 -63q-21 -29 -49.5 -64t-63.5 -77q-50 -59 -66 -90q-23 -44 -23 -100zM153 636q0 -25 35 -25q12 0 19.5 13t7.5 26q0 30 -27 30q-15 0 -25 -14t-10 -30z" />
    <glyph glyph-name="Agrave" unicode="&#xc0;" horiz-adv-x="676" 
d="M666 6q-2 3 -11 8.5t-13 17.5q-14 37 -29 95t-32 137q-42 199 -42 336q0 8 2 23.5t2 23.5q0 10 -28 26q-28 17 -38 17q-31 0 -31 -13q0 -3 2 -7.5t2 -7.5q0 -30 -58 -177q-65 -167 -115 -249q-108 -12 -108 -19q0 -14 24 -14q6 0 17.5 2.5t18.5 2.5q6 0 12.5 -0.5
t14.5 -1.5q-47 -91 -78 -125q-54 -57 -129 -57q-49 0 -49 30q-5 0 -10 1q-5 2 -8 0q-3 -1 -8 -8q34 -72 117 -72q64 0 127 96q29 46 49.5 81t34.5 58q17 2 46 3.5t71 3.5q76 3 118 9q40 -178 76 -225q23 -5 35 -5q18 0 18 10zM518 331q13 -77 13 -83l-213 -5q16 28 36.5 75
t46.5 116q26 71 43.5 114t26.5 60q7 -6 12 -24l0.5 -7l1.5 -21q4 -51 33 -225zM477 776q5 10 5 14q0 7 -25 31q-10 9 -16 15l-8 8q-12 19 -34 15q-20 -5 -20 -21q0 -15 28 -31q7 -4 11.5 -6.5t6.5 -3.5l46 -27z" />
    <glyph glyph-name="Aacute" unicode="&#xc1;" horiz-adv-x="676" 
d="M666 6q-2 3 -11 8.5t-13 17.5q-14 37 -29 95t-32 137q-42 199 -42 336q0 8 2 23.5t2 23.5q0 10 -28 26q-28 17 -38 17q-31 0 -31 -13q0 -3 2 -7.5t2 -7.5q0 -30 -58 -177q-65 -167 -115 -249q-108 -12 -108 -19q0 -14 24 -14q6 0 17.5 2.5t18.5 2.5q6 0 12.5 -0.5
t14.5 -1.5q-47 -91 -78 -125q-54 -57 -129 -57q-49 0 -49 30q-5 0 -10 1q-5 2 -8 0q-3 -1 -8 -8q34 -72 117 -72q64 0 127 96q29 46 49.5 81t34.5 58q17 2 46 3.5t71 3.5q76 3 118 9q40 -178 76 -225q23 -5 35 -5q18 0 18 10zM518 331q13 -77 13 -83l-213 -5q16 28 36.5 75
t46.5 116q26 71 43.5 114t26.5 60q7 -6 12 -24l0.5 -7l1.5 -21q4 -51 33 -225zM589 838q0 5 -4 12t-16 9q-22 4 -34 -15q-9 -8 -15 -14l-9 -9q-25 -24 -25 -31q0 -5 6 -12l5 -8l46 27q7 4 11.5 6t6.5 4q28 16 28 31z" />
    <glyph glyph-name="Acircumflex" unicode="&#xc2;" horiz-adv-x="676" 
d="M666 6q-2 3 -11 8.5t-13 17.5q-14 37 -29 95t-32 137q-42 199 -42 336q0 8 2 23.5t2 23.5q0 10 -28 26q-28 17 -38 17q-31 0 -31 -13q0 -3 2 -7.5t2 -7.5q0 -30 -58 -177q-65 -167 -115 -249q-108 -12 -108 -19q0 -14 24 -14q6 0 17.5 2.5t18.5 2.5q6 0 12.5 -0.5
t14.5 -1.5q-47 -91 -78 -125q-54 -57 -129 -57q-49 0 -49 30q-5 0 -10 1q-5 2 -8 0q-3 -1 -8 -8q34 -72 117 -72q64 0 127 96q29 46 49.5 81t34.5 58q17 2 46 3.5t71 3.5q76 3 118 9q40 -178 76 -225q23 -5 35 -5q18 0 18 10zM518 331q13 -77 13 -83l-213 -5q16 28 36.5 75
t46.5 116q26 71 43.5 114t26.5 60q7 -6 12 -24l0.5 -7l1.5 -21q4 -51 33 -225zM565 770q6 5 5 9q-2 16 -27 54q-25 37 -32 36q-13 0 -41 -27q-29 -27 -32 -41q-2 -9 5 -12q3 -1 7.5 1.5t9.5 7t10 9.5l8 8q16 16 30 16t24 -16q5 -10 9.5 -17.5l7.5 -12.5q10 -15 16 -15z" />
    <glyph glyph-name="Atilde" unicode="&#xc3;" horiz-adv-x="676" 
d="M666 6q-2 3 -11 8.5t-13 17.5q-14 37 -29 95t-32 137q-42 199 -42 336q0 8 2 23.5t2 23.5q0 10 -28 26q-28 17 -38 17q-31 0 -31 -13q0 -3 2 -7.5t2 -7.5q0 -30 -58 -177q-65 -167 -115 -249q-108 -12 -108 -19q0 -14 24 -14q6 0 17.5 2.5t18.5 2.5q6 0 12.5 -0.5
t14.5 -1.5q-47 -91 -78 -125q-54 -57 -129 -57q-49 0 -49 30q-5 0 -10 1q-5 2 -8 0q-3 -1 -8 -8q34 -72 117 -72q64 0 127 96q29 46 49.5 81t34.5 58q17 2 46 3.5t71 3.5q76 3 118 9q40 -178 76 -225q23 -5 35 -5q18 0 18 10zM518 331q13 -77 13 -83l-213 -5q16 28 36.5 75
t46.5 116q26 71 43.5 114t26.5 60q7 -6 12 -24l0.5 -7l1.5 -21q4 -51 33 -225zM545 770q4 -2 7 -2q13 0 27 19t14 45q0 13 -4 16l-1 -1.5t-3 -3.5q-23 -38 -34 -38q-4 0 -6 1q-12 3 -21.5 13.5t-17.5 19.5q-35 30 -52 26q-26 -6 -26 -45q0 -18 5 -18q4 0 9 15q6 20 19 20
q18 0 38 -27q14 -15 26 -25t20 -15z" />
    <glyph glyph-name="Adieresis" unicode="&#xc4;" horiz-adv-x="676" 
d="M666 6q-2 3 -11 8.5t-13 17.5q-14 37 -29 95t-32 137q-42 199 -42 336q0 8 2 23.5t2 23.5q0 10 -28 26q-28 17 -38 17q-31 0 -31 -13q0 -3 2 -7.5t2 -7.5q0 -30 -58 -177q-65 -167 -115 -249q-108 -12 -108 -19q0 -14 24 -14q6 0 17.5 2.5t18.5 2.5q6 0 12.5 -0.5
t14.5 -1.5q-47 -91 -78 -125q-54 -57 -129 -57q-49 0 -49 30q-5 0 -10 1q-5 2 -8 0q-3 -1 -8 -8q34 -72 117 -72q64 0 127 96q29 46 49.5 81t34.5 58q17 2 46 3.5t71 3.5q76 3 118 9q40 -178 76 -225q23 -5 35 -5q18 0 18 10zM518 331q13 -77 13 -83l-213 -5q16 28 36.5 75
t46.5 116q26 71 43.5 114t26.5 60q7 -6 12 -24l0.5 -7l1.5 -21q4 -51 33 -225zM567 807q0 37 -34 37q-10 0 -20.5 -11t-10.5 -21q0 -16 12 -29t28 -13q25 0 25 37zM490 806q0 37 -34 37q-10 0 -20.5 -11t-10.5 -21q0 -16 12 -29t28 -13q25 0 25 37z" />
    <glyph glyph-name="Aring" unicode="&#xc5;" horiz-adv-x="676" 
d="M666 6q-2 3 -11 8.5t-13 17.5q-14 37 -29 95t-32 137q-42 199 -42 336q0 8 2 23.5t2 23.5q0 10 -28 26q-28 17 -38 17q-31 0 -31 -13q0 -3 2 -7.5t2 -7.5q0 -30 -58 -177q-65 -167 -115 -249q-108 -12 -108 -19q0 -14 24 -14q6 0 17.5 2.5t18.5 2.5q6 0 12.5 -0.5
t14.5 -1.5q-47 -91 -78 -125q-54 -57 -129 -57q-49 0 -49 30q-5 0 -10 1q-5 2 -8 0q-3 -1 -8 -8q34 -72 117 -72q64 0 127 96q29 46 49.5 81t34.5 58q17 2 46 3.5t71 3.5q76 3 118 9q40 -178 76 -225q23 -5 35 -5q18 0 18 10zM518 331q13 -77 13 -83l-213 -5q16 28 36.5 75
t46.5 116q26 71 43.5 114t26.5 60q7 -6 12 -24l0.5 -7l1.5 -21q4 -51 33 -225zM514 770q30 0 57 40q28 39 23 73q-8 36 -41 36q-32 0 -59 -40q-26 -41 -20 -73q6 -36 40 -36zM545 887q18 0 21 -18t-14 -44q-16 -25 -35 -25q-14 0 -17 17q-3 18 12 44q17 26 33 26z" />
    <glyph glyph-name="AE" unicode="&#xc6;" horiz-adv-x="1145" 
d="M518 331q13 -77 13 -83l-213 -5q16 28 36.5 75t46.5 116q26 71 43.5 114t26.5 60q7 -6 12 -24l0.5 -7l1.5 -21q4 -51 33 -225zM1139 108q0 21 -35 21v-19q3 0 3 -2q0 -8 -66 -42q-26 -14 -93 -24q-59 -10 -97 -10q-156 0 -229 60q-8 28 -16 61t-17 72q28 67 144 114
q99 40 187 40q12 0 35 -14q14 5 16 26q1 21 -12 30q-8 1 -29.5 -0.5t-56.5 -3.5q-80 -6 -93 -6q-44 0 -80 13q-51 19 -51 54q0 81 151 124q106 30 215 30q31 0 48 -9q22 -17 34 -28q12 0 12 30q0 35 -35 46q-18 7 -64 7q-126 0 -235 -36q-154 -51 -154 -152q0 -46 29 -73
q24 -21 73 -38q-107 -55 -144 -107q-40 193 -40 328q0 8 2 23.5t2 23.5q0 10 -28 26q-28 17 -38 17q-31 0 -31 -13q0 -3 2 -7.5t2 -7.5q0 -30 -58 -177q-65 -167 -115 -249q-108 -12 -108 -19q0 -14 24 -14q6 0 17.5 2.5t18.5 2.5q6 0 12.5 -0.5t14.5 -1.5q-47 -91 -78 -125
q-54 -57 -129 -57q-49 0 -49 30q-5 0 -10 1q-5 2 -8 0q-3 -1 -8 -8q34 -72 117 -72q64 0 127 96q29 46 49.5 81t34.5 58q17 2 46 3.5t71 3.5q76 3 118 9q4 -18 8 -34.5t8 -31.5q3 -26 13 -47q25 -82 47 -112q23 -5 35 -5q18 0 18 10q-2 3 -11 8.5t-13 17.5l-1 4
q82 -49 206 -49q69 0 168 31q124 39 124 90z" />
    <glyph glyph-name="Ccedilla" unicode="&#xc7;" horiz-adv-x="427" 
d="M171 -58q-3 1 -3 5q0 11 27 41q56 1 119 29q61 27 96 71q9 22 9 27q0 10 -14 12l-16 -29q-103 -79 -214 -79q-124 0 -124 168q0 149 57 304q61 168 136 168q36 0 70 -17q42 -20 42 -53q0 -30 -17 -96q-17 -65 -17 -92q0 -15 7 -30q8 -20 21 -20q19 0 34 80q12 64 12 99
q0 58 -15 85q-11 21 -44 40q-52 31 -107 31q-39 0 -58 -13q-77 -50 -129 -215q-43 -135 -43 -245q0 -88 38 -149q43 -67 128 -75q-30 -45 -41 -59q-2 -6 -1 -10q1 -3 4 -6q14 -2 27 -4.5t15 -15.5q2 -17 -23 -24q-8 -2 -16 -4.5t-16 -4.5q-1 -4 0 -17q2 -14 6 -14q2 0 2 1
q1 1 53 25q33 15 29 40q-4 30 -34 46z" />
    <glyph glyph-name="Egrave" unicode="&#xc8;" horiz-adv-x="596" 
d="M587 107q0 21 -35 21v-19q3 0 3 -2q0 -8 -66 -42q-26 -14 -93 -24q-59 -10 -97 -10q-96 0 -169 27q-102 37 -102 118q0 98 145 158q108 44 195 44q12 0 35 -14q14 5 16 26q1 21 -12 30q-8 1 -29.5 -0.5t-56.5 -3.5q-80 -6 -93 -6q-44 0 -80 13q-51 19 -51 54
q0 81 151 124q106 30 215 30q31 0 48 -9q22 -17 34 -28q12 0 12 30q0 35 -35 46q-18 7 -64 7q-126 0 -235 -36q-154 -51 -154 -152q0 -46 29 -73q24 -21 73 -38q-78 -40 -116 -76q-55 -52 -55 -122q0 -101 103 -153q82 -41 192 -41q69 0 168 31q124 39 124 90zM359 776
q5 10 5 14q0 7 -25 31q-10 9 -16 15l-8 8q-12 19 -34 15q-20 -5 -20 -21q0 -15 28 -31q7 -4 11.5 -6.5t6.5 -3.5l46 -27z" />
    <glyph glyph-name="Eacute" unicode="&#xc9;" horiz-adv-x="596" 
d="M587 107q0 21 -35 21v-19q3 0 3 -2q0 -8 -66 -42q-26 -14 -93 -24q-59 -10 -97 -10q-96 0 -169 27q-102 37 -102 118q0 98 145 158q108 44 195 44q12 0 35 -14q14 5 16 26q1 21 -12 30q-8 1 -29.5 -0.5t-56.5 -3.5q-80 -6 -93 -6q-44 0 -80 13q-51 19 -51 54
q0 81 151 124q106 30 215 30q31 0 48 -9q22 -17 34 -28q12 0 12 30q0 35 -35 46q-18 7 -64 7q-126 0 -235 -36q-154 -51 -154 -152q0 -46 29 -73q24 -21 73 -38q-78 -40 -116 -76q-55 -52 -55 -122q0 -101 103 -153q82 -41 192 -41q69 0 168 31q124 39 124 90zM454 838
q0 5 -4 12t-16 9q-22 4 -34 -15q-9 -8 -15 -14l-9 -9q-25 -24 -25 -31q0 -5 6 -12l5 -8l46 27q7 4 11.5 6t6.5 4q28 16 28 31z" />
    <glyph glyph-name="Ecircumflex" unicode="&#xca;" horiz-adv-x="596" 
d="M587 107q0 21 -35 21v-19q3 0 3 -2q0 -8 -66 -42q-26 -14 -93 -24q-59 -10 -97 -10q-96 0 -169 27q-102 37 -102 118q0 98 145 158q108 44 195 44q12 0 35 -14q14 5 16 26q1 21 -12 30q-8 1 -29.5 -0.5t-56.5 -3.5q-80 -6 -93 -6q-44 0 -80 13q-51 19 -51 54
q0 81 151 124q106 30 215 30q31 0 48 -9q22 -17 34 -28q12 0 12 30q0 35 -35 46q-18 7 -64 7q-126 0 -235 -36q-154 -51 -154 -152q0 -46 29 -73q24 -21 73 -38q-78 -40 -116 -76q-55 -52 -55 -122q0 -101 103 -153q82 -41 192 -41q69 0 168 31q124 39 124 90zM453 770
q6 5 5 9q-2 16 -27 54q-25 37 -32 36q-13 0 -41 -27q-29 -27 -32 -41q-2 -9 5 -12q3 -1 7.5 1.5t9.5 7t10 9.5l8 8q16 16 30 16t24 -16q5 -10 9.5 -17.5l7.5 -12.5q10 -15 16 -15z" />
    <glyph glyph-name="Edieresis" unicode="&#xcb;" horiz-adv-x="596" 
d="M587 107q0 21 -35 21v-19q3 0 3 -2q0 -8 -66 -42q-26 -14 -93 -24q-59 -10 -97 -10q-96 0 -169 27q-102 37 -102 118q0 98 145 158q108 44 195 44q12 0 35 -14q14 5 16 26q1 21 -12 30q-8 1 -29.5 -0.5t-56.5 -3.5q-80 -6 -93 -6q-44 0 -80 13q-51 19 -51 54
q0 81 151 124q106 30 215 30q31 0 48 -9q22 -17 34 -28q12 0 12 30q0 35 -35 46q-18 7 -64 7q-126 0 -235 -36q-154 -51 -154 -152q0 -46 29 -73q24 -21 73 -38q-78 -40 -116 -76q-55 -52 -55 -122q0 -101 103 -153q82 -41 192 -41q69 0 168 31q124 39 124 90zM436 807
q0 37 -34 37q-10 0 -20.5 -11t-10.5 -21q0 -16 12 -29t28 -13q25 0 25 37zM359 806q0 37 -34 37q-10 0 -20.5 -11t-10.5 -21q0 -16 12 -29t28 -13q25 0 25 37z" />
    <glyph glyph-name="Igrave" unicode="&#xcc;" horiz-adv-x="301" 
d="M325 637q-5 9 -14 9h-18q-10 0 -24 1t-24 1h-17q-15 0 -184 -18q-13 -7 -23 -13.5t-18 -13.5q45 -3 106 -3q3 -12 -6 -234q-5 -131 -8 -199.5t-3 -78.5q0 -6 1 -15.5t2 -19.5t2 -19t1 -15l-71 -8q-53 -6 -53 -15q1 -13 95 -13q80 0 138 14q40 9 49 19q0 14 -77 11
q-26 -1 -35.5 -1.5t-3.5 -0.5q-5 15 -5 83q0 120 12 264q13 161 35 231l100 17q4 1 14.5 5t28.5 12zM120 776q5 10 5 14q0 7 -25 31q-10 9 -16 15l-8 8q-12 19 -34 15q-20 -5 -20 -21q0 -15 28 -31q7 -4 11.5 -6.5t6.5 -3.5l46 -27z" />
    <glyph glyph-name="Iacute" unicode="&#xcd;" horiz-adv-x="301" 
d="M325 637q-5 9 -14 9h-18q-10 0 -24 1t-24 1h-17q-15 0 -184 -18q-13 -7 -23 -13.5t-18 -13.5q45 -3 106 -3q3 -12 -6 -234q-5 -131 -8 -199.5t-3 -78.5q0 -6 1 -15.5t2 -19.5t2 -19t1 -15l-71 -8q-53 -6 -53 -15q1 -13 95 -13q80 0 138 14q40 9 49 19q0 14 -77 11
q-26 -1 -35.5 -1.5t-3.5 -0.5q-5 15 -5 83q0 120 12 264q13 161 35 231l100 17q4 1 14.5 5t28.5 12zM270 838q0 5 -4 12t-16 9q-22 4 -34 -15q-9 -8 -15 -14l-9 -9q-25 -24 -25 -31q0 -5 6 -12l5 -8l46 27q7 4 11.5 6t6.5 4q28 16 28 31z" />
    <glyph glyph-name="Icircumflex" unicode="&#xce;" horiz-adv-x="301" 
d="M325 637q-5 9 -14 9h-18q-10 0 -24 1t-24 1h-17q-15 0 -184 -18q-13 -7 -23 -13.5t-18 -13.5q45 -3 106 -3q3 -12 -6 -234q-5 -131 -8 -199.5t-3 -78.5q0 -6 1 -15.5t2 -19.5t2 -19t1 -15l-71 -8q-53 -6 -53 -15q1 -13 95 -13q80 0 138 14q40 9 49 19q0 14 -77 11
q-26 -1 -35.5 -1.5t-3.5 -0.5q-5 15 -5 83q0 120 12 264q13 161 35 231l100 17q4 1 14.5 5t28.5 12zM228 770q6 5 5 9q-2 16 -27 54q-25 37 -32 36q-13 0 -41 -27q-29 -27 -32 -41q-2 -9 5 -12q3 -1 7.5 1.5t9.5 7t10 9.5l8 8q16 16 30 16t24 -16q5 -10 9.5 -17.5l7.5 -12.5
q10 -15 16 -15z" />
    <glyph glyph-name="Idieresis" unicode="&#xcf;" horiz-adv-x="301" 
d="M325 637q-5 9 -14 9h-18q-10 0 -24 1t-24 1h-17q-15 0 -184 -18q-13 -7 -23 -13.5t-18 -13.5q45 -3 106 -3q3 -12 -6 -234q-5 -131 -8 -199.5t-3 -78.5q0 -6 1 -15.5t2 -19.5t2 -19t1 -15l-71 -8q-53 -6 -53 -15q1 -13 95 -13q80 0 138 14q40 9 49 19q0 14 -77 11
q-26 -1 -35.5 -1.5t-3.5 -0.5q-5 15 -5 83q0 120 12 264q13 161 35 231l100 17q4 1 14.5 5t28.5 12zM233 807q0 37 -34 37q-10 0 -20.5 -11t-10.5 -21q0 -16 12 -29t28 -13q25 0 25 37zM156 806q0 37 -34 37q-10 0 -20.5 -11t-10.5 -21q0 -16 12 -29t28 -13q25 0 25 37z" />
    <glyph glyph-name="Ntilde" unicode="&#xd1;" horiz-adv-x="534" 
d="M533 683q0 12 -20 15q-37 -49 -54 -197q-8 -88 -14 -153t-10 -110l-6 -135q-2 -54 -19 -54q-40 0 -79 174q-42 187 -42 434q0 36 -52 36q-23 0 -39 -25q1 -3 1 -16q0 -84 -30 -282q-55 -369 -172 -369q-27 0 -27 12q0 3 4 7q-4 4 -10 4q-13 0 -13 -16q0 -33 65 -33
q79 0 120 101q29 72 51 232q14 100 24 163t17 89q22 -143 45.5 -251.5t49.5 -186.5q25 -80 33 -90q22 -37 63 -37q45 0 45 23q0 5 -2.5 16t-2.5 17q0 62 4.5 138t12.5 168q9 96 19 166t21 115q1 3 4 9.5t6 13.5t5 13t2 9zM413 770q4 -2 7 -2q13 0 27 19t14 45q0 13 -4 16
l-1 -1.5t-3 -3.5q-23 -38 -34 -38q-4 0 -6 1q-12 3 -21.5 13.5t-17.5 19.5q-35 30 -52 26q-26 -6 -26 -45q0 -18 5 -18q4 0 9 15q6 20 19 20q18 0 38 -27q14 -15 26 -25t20 -15z" />
    <glyph glyph-name="Ograve" unicode="&#xd2;" horiz-adv-x="436" 
d="M412 422q0 262 -199 275q-5 0 -13 -5q-18 8 -23 8q-21 0 -45 -30q-8 -11 -16.5 -23t-16.5 -24q-49 -68 -76 -186q-23 -103 -23 -201q0 -99 47 -170q53 -80 148 -80q124 0 180 167q37 111 37 269zM375 427q0 -410 -187 -410q-135 0 -135 221q0 113 47 256q57 172 134 172
q79 0 115 -86q26 -63 26 -153zM205 776q5 10 5 14q0 7 -25 31q-10 9 -16 15l-8 8q-12 19 -34 15q-20 -5 -20 -21q0 -15 28 -31q7 -4 11.5 -6.5t6.5 -3.5l46 -27z" />
    <glyph glyph-name="Oacute" unicode="&#xd3;" horiz-adv-x="436" 
d="M412 422q0 262 -199 275q-5 0 -13 -5q-18 8 -23 8q-21 0 -45 -30q-8 -11 -16.5 -23t-16.5 -24q-49 -68 -76 -186q-23 -103 -23 -201q0 -99 47 -170q53 -80 148 -80q124 0 180 167q37 111 37 269zM375 427q0 -410 -187 -410q-135 0 -135 221q0 113 47 256q57 172 134 172
q79 0 115 -86q26 -63 26 -153zM368 838q0 5 -4 12t-16 9q-22 4 -34 -15q-9 -8 -15 -14l-9 -9q-25 -24 -25 -31q0 -5 6 -12l5 -8l46 27q7 4 11.5 6t6.5 4q28 16 28 31z" />
    <glyph glyph-name="Ocircumflex" unicode="&#xd4;" horiz-adv-x="436" 
d="M412 422q0 262 -199 275q-5 0 -13 -5q-18 8 -23 8q-21 0 -45 -30q-8 -11 -16.5 -23t-16.5 -24q-49 -68 -76 -186q-23 -103 -23 -201q0 -99 47 -170q53 -80 148 -80q124 0 180 167q37 111 37 269zM375 427q0 -410 -187 -410q-135 0 -135 221q0 113 47 256q57 172 134 172
q79 0 115 -86q26 -63 26 -153zM329 770q6 5 5 9q-2 16 -27 54q-25 37 -32 36q-13 0 -41 -27q-29 -27 -32 -41q-2 -9 5 -12q3 -1 7.5 1.5t9.5 7t10 9.5l8 8q16 16 30 16t24 -16q5 -10 9.5 -17.5l7.5 -12.5q10 -15 16 -15z" />
    <glyph glyph-name="Otilde" unicode="&#xd5;" horiz-adv-x="436" 
d="M412 422q0 262 -199 275q-5 0 -13 -5q-18 8 -23 8q-21 0 -45 -30q-8 -11 -16.5 -23t-16.5 -24q-49 -68 -76 -186q-23 -103 -23 -201q0 -99 47 -170q53 -80 148 -80q124 0 180 167q37 111 37 269zM375 427q0 -410 -187 -410q-135 0 -135 221q0 113 47 256q57 172 134 172
q79 0 115 -86q26 -63 26 -153zM290 770q4 -2 7 -2q13 0 27 19t14 45q0 13 -4 16l-1 -1.5t-3 -3.5q-23 -38 -34 -38q-4 0 -6 1q-12 3 -21.5 13.5t-17.5 19.5q-35 30 -52 26q-26 -6 -26 -45q0 -18 5 -18q4 0 9 15q6 20 19 20q18 0 38 -27q14 -15 26 -25t20 -15z" />
    <glyph glyph-name="Odieresis" unicode="&#xd6;" horiz-adv-x="436" 
d="M412 422q0 262 -199 275q-5 0 -13 -5q-18 8 -23 8q-21 0 -45 -30q-8 -11 -16.5 -23t-16.5 -24q-49 -68 -76 -186q-23 -103 -23 -201q0 -99 47 -170q53 -80 148 -80q124 0 180 167q37 111 37 269zM375 427q0 -410 -187 -410q-135 0 -135 221q0 113 47 256q57 172 134 172
q79 0 115 -86q26 -63 26 -153zM343 807q0 37 -34 37q-10 0 -20.5 -11t-10.5 -21q0 -16 12 -29t28 -13q25 0 25 37zM266 806q0 37 -34 37q-10 0 -20.5 -11t-10.5 -21q0 -16 12 -29t28 -13q25 0 25 37z" />
    <glyph glyph-name="Oslash" unicode="&#xd8;" horiz-adv-x="509" 
d="M426 460q1 -8 1 -16v-16q0 -410 -187 -410q-130 0 -135 209zM105 258q2 54 13.5 113t33.5 124q57 172 134 172q63 0 101 -59q14 -23 23.5 -52.5t13.5 -65.5zM-18 168l14 -21l59 43q10 -86 57 -141q53 -62 135 -62q124 0 180 167q37 111 37 269q0 33 -3 63l83 60l-15 20
l-72 -52q-31 173 -192 184q-5 0 -13 -5q-18 8 -23 8q-21 0 -45 -30q-8 -11 -16.5 -23t-16.5 -24q-49 -68 -76 -186q-23 -103 -23 -201v-17z" />
    <glyph glyph-name="Ugrave" unicode="&#xd9;" horiz-adv-x="542" 
d="M534 581q-44 33 -62 33q-13 0 -19 -11q0 -8 3 -18q4 -19 4 -66q0 -130 -38 -274q-11 -42 -24 -76.5t-29 -63.5q-48 -92 -104 -92q-68 0 -94 77q-14 47 -14 134q0 172 75 351q3 6 20 27q17 20 17 27q0 16 -52 32q-95 -210 -216 -210h-9t-9 1q25 -25 52 -25q40 0 113 56
q-39 -158 -39 -250q0 -247 156 -247q58 0 103 63q7 10 22 37.5t38 75.5l4.5 -96l1.5 -32q6 -78 38 -78q14 0 21 5q-19 15 -22 106v101l32 312q2 17 12 53q5 18 10 30t9 18zM359 776q5 10 5 14q0 7 -25 31q-10 9 -16 15l-8 8q-12 19 -34 15q-20 -5 -20 -21q0 -15 28 -31
q7 -4 11.5 -6.5t6.5 -3.5l46 -27z" />
    <glyph glyph-name="Uacute" unicode="&#xda;" horiz-adv-x="542" 
d="M534 581q-44 33 -62 33q-13 0 -19 -11q0 -8 3 -18q4 -19 4 -66q0 -130 -38 -274q-11 -42 -24 -76.5t-29 -63.5q-48 -92 -104 -92q-68 0 -94 77q-14 47 -14 134q0 172 75 351q3 6 20 27q17 20 17 27q0 16 -52 32q-95 -210 -216 -210h-9t-9 1q25 -25 52 -25q40 0 113 56
q-39 -158 -39 -250q0 -247 156 -247q58 0 103 63q7 10 22 37.5t38 75.5l4.5 -96l1.5 -32q6 -78 38 -78q14 0 21 5q-19 15 -22 106v101l32 312q2 17 12 53q5 18 10 30t9 18zM512 838q0 5 -4 12t-16 9q-22 4 -34 -15q-9 -8 -15 -14l-9 -9q-25 -24 -25 -31q0 -5 6 -12l5 -8
l46 27q7 4 11.5 6t6.5 4q28 16 28 31z" />
    <glyph glyph-name="Ucircumflex" unicode="&#xdb;" horiz-adv-x="542" 
d="M534 581q-44 33 -62 33q-13 0 -19 -11q0 -8 3 -18q4 -19 4 -66q0 -130 -38 -274q-11 -42 -24 -76.5t-29 -63.5q-48 -92 -104 -92q-68 0 -94 77q-14 47 -14 134q0 172 75 351q3 6 20 27q17 20 17 27q0 16 -52 32q-95 -210 -216 -210h-9t-9 1q25 -25 52 -25q40 0 113 56
q-39 -158 -39 -250q0 -247 156 -247q58 0 103 63q7 10 22 37.5t38 75.5l4.5 -96l1.5 -32q6 -78 38 -78q14 0 21 5q-19 15 -22 106v101l32 312q2 17 12 53q5 18 10 30t9 18zM453 770q6 5 5 9q-2 16 -27 54q-25 37 -32 36q-13 0 -41 -27q-29 -27 -32 -41q-2 -9 5 -12
q3 -1 7.5 1.5t9.5 7t10 9.5l8 8q16 16 30 16t24 -16q5 -10 9.5 -17.5l7.5 -12.5q10 -15 16 -15z" />
    <glyph glyph-name="Udieresis" unicode="&#xdc;" horiz-adv-x="542" 
d="M534 581q-44 33 -62 33q-13 0 -19 -11q0 -8 3 -18q4 -19 4 -66q0 -130 -38 -274q-11 -42 -24 -76.5t-29 -63.5q-48 -92 -104 -92q-68 0 -94 77q-14 47 -14 134q0 172 75 351q3 6 20 27q17 20 17 27q0 16 -52 32q-95 -210 -216 -210h-9t-9 1q25 -25 52 -25q40 0 113 56
q-39 -158 -39 -250q0 -247 156 -247q58 0 103 63q7 10 22 37.5t38 75.5l4.5 -96l1.5 -32q6 -78 38 -78q14 0 21 5q-19 15 -22 106v101l32 312q2 17 12 53q5 18 10 30t9 18zM465 807q0 37 -34 37q-10 0 -20.5 -11t-10.5 -21q0 -16 12 -29t28 -13q25 0 25 37zM388 806
q0 37 -34 37q-10 0 -20.5 -11t-10.5 -21q0 -16 12 -29t28 -13q25 0 25 37z" />
    <glyph glyph-name="agrave" unicode="&#xe0;" 
d="M111 264l-12 -92q-2 -18 -8 -40.5t-14 -48.5q-21 -66 -40 -77q-14 0 -23 19q-7 15 -7 32q0 90 16 151q7 23 12 41t9 29q13 48 30 48q21 0 25 -46zM160 0q30 0 72 130q37 114 37 151q0 15 -8 15t-14 -23q-59 -246 -93 -246q-17 0 -25 35q-6 25 -4 48q9 106 34 179l-35 12
l-18 36q-11 23 -56 23q-20 0 -49 -104q-23 -91 -25 -130q-3 -146 56 -146q41 0 67 93q24 -73 61 -73zM89 520q5 10 5 14q0 7 -25 31q-10 9 -16 15l-8 8q-12 19 -34 15q-19 -4 -19 -21q0 -15 27 -31q7 -4 11.5 -6.5t6.5 -3.5l46 -27z" />
    <glyph glyph-name="aacute" unicode="&#xe1;" 
d="M111 264l-12 -92q-2 -18 -8 -40.5t-14 -48.5q-21 -66 -40 -77q-14 0 -23 19q-7 15 -7 32q0 90 16 151q7 23 12 41t9 29q13 48 30 48q21 0 25 -46zM160 0q30 0 72 130q37 114 37 151q0 15 -8 15t-14 -23q-59 -246 -93 -246q-17 0 -25 35q-6 25 -4 48q9 106 34 179l-35 12
l-18 36q-11 23 -56 23q-20 0 -49 -104q-23 -91 -25 -130q-3 -146 56 -146q41 0 67 93q24 -73 61 -73zM224 582q0 5 -4 12t-16 9q-22 4 -34 -15q-9 -8 -15 -14l-9 -9q-25 -24 -25 -31q0 -5 6 -12l5 -8l46 27q7 4 11.5 6t6.5 4q28 16 28 31z" />
    <glyph glyph-name="acircumflex" unicode="&#xe2;" 
d="M111 264l-12 -92q-2 -18 -8 -40.5t-14 -48.5q-21 -66 -40 -77q-14 0 -23 19q-7 15 -7 32q0 90 16 151q7 23 12 41t9 29q13 48 30 48q21 0 25 -46zM160 0q30 0 72 130q37 114 37 151q0 15 -8 15t-14 -23q-59 -246 -93 -246q-17 0 -25 35q-6 25 -4 48q9 106 34 179l-35 12
l-18 36q-11 23 -56 23q-20 0 -49 -104q-23 -91 -25 -130q-3 -146 56 -146q41 0 67 93q24 -73 61 -73zM195 514q6 5 5 9q-2 16 -27 54q-25 37 -32 36q-13 0 -41 -27q-29 -27 -32 -41q-2 -9 5 -12q3 -1 7.5 1.5t9.5 7t10 9.5l8 8q16 16 30 16t24 -16q5 -10 9.5 -17.5
l7.5 -12.5q10 -15 16 -15z" />
    <glyph glyph-name="atilde" unicode="&#xe3;" 
d="M111 264l-12 -92q-2 -18 -8 -40.5t-14 -48.5q-21 -66 -40 -77q-14 0 -23 19q-7 15 -7 32q0 90 16 151q7 23 12 41t9 29q13 48 30 48q21 0 25 -46zM160 0q30 0 72 130q37 114 37 151q0 15 -8 15t-14 -23q-59 -246 -93 -246q-17 0 -25 35q-6 25 -4 48q9 106 34 179l-35 12
l-18 36q-11 23 -56 23q-20 0 -49 -104q-23 -91 -25 -130q-3 -146 56 -146q41 0 67 93q24 -73 61 -73zM160 514q4 -2 7 -2q13 0 27 19t14 45q0 13 -4 16l-1 -1.5t-3 -3.5q-23 -38 -34 -38q-4 0 -6 1q-12 3 -21.5 13.5t-17.5 19.5q-35 30 -52 26q-26 -6 -26 -45q0 -18 5 -18
q4 0 9 15q6 20 19 20q18 0 38 -27q14 -15 26 -25t20 -15z" />
    <glyph glyph-name="adieresis" unicode="&#xe4;" 
d="M111 264l-12 -92q-2 -18 -8 -40.5t-14 -48.5q-21 -66 -40 -77q-14 0 -23 19q-7 15 -7 32q0 90 16 151q7 23 12 41t9 29q13 48 30 48q21 0 25 -46zM160 0q30 0 72 130q37 114 37 151q0 15 -8 15t-14 -23q-59 -246 -93 -246q-17 0 -25 35q-6 25 -4 48q9 106 34 179l-35 12
l-18 36q-11 23 -56 23q-20 0 -49 -104q-23 -91 -25 -130q-3 -146 56 -146q41 0 67 93q24 -73 61 -73zM162 554q0 37 -34 37q-10 0 -20.5 -11t-10.5 -21q0 -16 12 -29t28 -13q25 0 25 37zM85 553q0 37 -34 37q-10 0 -20.5 -11t-10.5 -21q0 -16 12 -29t28 -13q25 0 25 37z" />
    <glyph glyph-name="aring" unicode="&#xe5;" 
d="M269 281q0 15 -8 15t-14 -23q-59 -246 -93 -246q-17 0 -25 35q-6 25 -4 48q9 106 34 179l-35 12l-18 36q-11 23 -56 23q-20 0 -49 -104q-23 -91 -25 -130q-3 -146 56 -146q41 0 67 93q24 -73 61 -73q30 0 72 130q37 114 37 151zM111 264l-12 -92q-2 -18 -8 -40.5
t-14 -48.5q-21 -66 -40 -77q-14 0 -23 19q-7 15 -7 32q0 90 16 151q7 23 12 41t9 29q13 48 30 48q21 0 25 -46zM148 514q30 0 57 40q28 39 23 73q-8 36 -41 36q-32 0 -59 -40q-26 -41 -20 -73q7 -36 40 -36zM179 631q18 0 21 -18t-14 -44q-16 -25 -35 -25q-14 0 -17 17
q-3 18 12 44q17 26 33 26z" />
    <glyph glyph-name="ae" unicode="&#xe6;" horiz-adv-x="462" 
d="M111 264l-12 -92q-2 -18 -8 -40.5t-14 -48.5q-21 -66 -40 -77q-14 0 -23 19q-7 15 -7 32q0 90 16 151q7 23 12 41t9 29q13 48 30 48q21 0 25 -46zM463 286q0 12 -13 12q-4 0 -19 -57q-60 -228 -108 -228q-18 0 -34 21q-17 22 -17 39q25 39 42 77q43 92 43 166
q0 21 -18 36t-39 15q-28 0 -52 -90l-1 -4q-65 -246 -93 -246q-17 0 -25 35q-6 25 -4 48q9 106 34 179l-35 12l-18 36q-11 23 -56 23q-20 0 -49 -104q-23 -91 -25 -130q-3 -146 56 -146q41 0 67 93q24 -73 61 -73q31 0 71 127v-6q0 -46 21 -85q26 -47 68 -47q30 0 53 29
q37 51 75 201q15 60 15 67zM330 305q0 -39 -19 -105q-21 -76 -44 -90q0 105 37 216q4 13 12 13q14 0 14 -34z" />
    <glyph glyph-name="ccedilla" unicode="&#xe7;" horiz-adv-x="165" 
d="M47 -58q-3 1 -3 5q0 12 34 49q36 4 69 88q7 17 15.5 45t19.5 68q18 66 18 82q0 17 -8 17q-9 0 -13 -15q-1 -4 -9 -41q-50 -215 -107 -215q-21 0 -31 31q-8 24 -8 47q0 148 41 198q23 -17 36 -17q17 0 17 24q0 14 -17 36q-17 21 -31 21q-36 0 -61 -97q-19 -75 -19 -128
q0 -119 59 -140q-19 -29 -31 -46t-17 -24q-1 -3 -1 -10q1 -3 4 -6q14 -2 27 -4.5t15 -15.5q2 -17 -23 -24q-8 -2 -15.5 -4.5t-15.5 -4.5q-1 -4 0 -17q2 -14 6 -14q2 0 2 1t52 25q33 15 29 40q-4 30 -34 46z" />
    <glyph glyph-name="egrave" unicode="&#xe8;" horiz-adv-x="190" 
d="M225 284q0 12 -13 12q-4 0 -19 -57q-60 -228 -108 -228q-18 0 -34 21q-17 22 -17 39q25 39 42 77q43 92 43 166q0 21 -18 36t-39 15q-36 0 -55 -109q-7 -38 -10 -72t-3 -65q0 -45 20 -85q26 -47 68 -47q30 0 53 29q37 51 75 201q15 60 15 67zM92 303q0 -39 -19 -105
q-21 -76 -44 -90q0 105 37 216q4 13 12 13q14 0 14 -34zM63 520q5 10 5 14q0 7 -25 31q-10 9 -16 15l-8 8q-12 19 -33 15q-20 -5 -20 -21q0 -15 28 -31q7 -4 11 -6.5t6 -3.5l46 -27z" />
    <glyph glyph-name="eacute" unicode="&#xe9;" horiz-adv-x="190" 
d="M225 284q0 12 -13 12q-4 0 -19 -57q-60 -228 -108 -228q-18 0 -34 21q-17 22 -17 39q25 39 42 77q43 92 43 166q0 21 -18 36t-39 15q-36 0 -55 -109q-7 -38 -10 -72t-3 -65q0 -45 20 -85q26 -47 68 -47q30 0 53 29q37 51 75 201q15 60 15 67zM92 303q0 -39 -19 -105
q-21 -76 -44 -90q0 105 37 216q4 13 12 13q14 0 14 -34zM224 582q0 5 -4 12t-16 9q-22 4 -34 -15q-9 -8 -15 -14l-9 -9q-25 -24 -25 -31q0 -5 6 -12l5 -8l46 27q7 4 11.5 6t6.5 4q28 16 28 31z" />
    <glyph glyph-name="ecircumflex" unicode="&#xea;" horiz-adv-x="190" 
d="M225 284q0 12 -13 12q-4 0 -19 -57q-60 -228 -108 -228q-18 0 -34 21q-17 22 -17 39q25 39 42 77q43 92 43 166q0 21 -18 36t-39 15q-36 0 -55 -109q-7 -38 -10 -72t-3 -65q0 -45 20 -85q26 -47 68 -47q30 0 53 29q37 51 75 201q15 60 15 67zM92 303q0 -39 -19 -105
q-21 -76 -44 -90q0 105 37 216q4 13 12 13q14 0 14 -34zM182 514q6 5 5 9q-2 16 -27 54q-25 37 -32 36q-13 0 -41 -27q-29 -27 -32 -41q-2 -9 5 -12q3 -1 7.5 1.5t9.5 7t10 9.5l8 8q16 16 30 16t24 -16q5 -10 9.5 -17.5l7.5 -12.5q10 -15 16 -15z" />
    <glyph glyph-name="edieresis" unicode="&#xeb;" horiz-adv-x="190" 
d="M225 284q0 12 -13 12q-4 0 -19 -57q-60 -228 -108 -228q-18 0 -34 21q-17 22 -17 39q25 39 42 77q43 92 43 166q0 21 -18 36t-39 15q-36 0 -55 -109q-7 -38 -10 -72t-3 -65q0 -45 20 -85q26 -47 68 -47q30 0 53 29q37 51 75 201q15 60 15 67zM92 303q0 -39 -19 -105
q-21 -76 -44 -90q0 105 37 216q4 13 12 13q14 0 14 -34zM162 554q0 37 -34 37q-10 0 -20.5 -11t-10.5 -21q0 -16 12 -29t28 -13q25 0 25 37zM85 553q0 37 -34 37q-10 0 -20.5 -11t-10.5 -21q0 -16 12 -29t28 -13q25 0 25 37z" />
    <glyph glyph-name="igrave" unicode="&#xec;" horiz-adv-x="132" 
d="M167 282q0 14 -9 14q-8 0 -14 -24q-7 -29 -13 -51t-11 -38q-32 -101 -33 -102q-20 -50 -34 -50q-30 0 -30 67q0 64 19 155q5 22 8.5 36.5t5.5 22.5q0 14 -26 14q-13 0 -20 -7q0 -18 -2 -45.5t-6 -64.5t-6 -64t-2 -45q0 -33 11 -63q15 -36 46 -36q28 0 48 44q7 16 33 98
q35 114 35 139zM34 520q5 10 5 14q0 7 -25 31l-23 23q-12 19 -34 15q-20 -5 -20 -21q0 -15 28 -31q7 -4 11.5 -6.5t6.5 -3.5l45 -27z" />
    <glyph glyph-name="iacute" unicode="&#xed;" horiz-adv-x="132" 
d="M167 282q0 14 -9 14q-8 0 -14 -24q-7 -29 -13 -51t-11 -38q-32 -101 -33 -102q-20 -50 -34 -50q-30 0 -30 67q0 64 19 155q5 22 8.5 36.5t5.5 22.5q0 14 -26 14q-13 0 -20 -7q0 -18 -2 -45.5t-6 -64.5t-6 -64t-2 -45q0 -33 11 -63q15 -36 46 -36q28 0 48 44q7 16 33 98
q35 114 35 139zM178 582q0 5 -4 12t-16 9q-22 4 -34 -15q-9 -8 -15 -14l-9 -9q-25 -24 -25 -31q0 -5 6 -12l5 -8l46 27q7 4 11.5 6t6.5 4q28 16 28 31z" />
    <glyph glyph-name="icircumflex" unicode="&#xee;" horiz-adv-x="132" 
d="M167 282q0 14 -9 14q-8 0 -14 -24q-7 -29 -13 -51t-11 -38q-32 -101 -33 -102q-20 -50 -34 -50q-30 0 -30 67q0 64 19 155q5 22 8.5 36.5t5.5 22.5q0 14 -26 14q-13 0 -20 -7q0 -18 -2 -45.5t-6 -64.5t-6 -64t-2 -45q0 -33 11 -63q15 -36 46 -36q28 0 48 44q7 16 33 98
q35 114 35 139zM129 514q6 5 5 9q-2 16 -27 54q-25 37 -32 36q-13 0 -41 -27q-29 -27 -32 -41q-2 -9 5 -12q3 -1 7.5 1.5t9.5 7t10 9.5l8 8q16 16 30 16t24 -16q5 -10 9.5 -17.5l7.5 -12.5q10 -15 16 -15z" />
    <glyph glyph-name="idieresis" unicode="&#xef;" horiz-adv-x="132" 
d="M167 282q0 14 -9 14q-8 0 -14 -24q-7 -29 -13 -51t-11 -38q-32 -101 -33 -102q-20 -50 -34 -50q-30 0 -30 67q0 64 19 155q5 22 8.5 36.5t5.5 22.5q0 14 -26 14q-13 0 -20 -7q0 -18 -2 -45.5t-6 -64.5t-6 -64t-2 -45q0 -33 11 -63q15 -36 46 -36q28 0 48 44q7 16 33 98
q35 114 35 139zM118 551q0 37 -34 37q-10 0 -20.5 -11t-10.5 -21q0 -16 12 -29t28 -13q25 0 25 37zM41 550q0 37 -34 37q-9 0 -19.5 -11t-10.5 -21q0 -16 11.5 -29t27.5 -13q25 0 25 37z" />
    <glyph glyph-name="ntilde" unicode="&#xf1;" horiz-adv-x="283" 
d="M318 281q0 15 -8 15q-9 0 -16 -31t-15.5 -61.5t-18.5 -61.5q-34 -106 -58 -106q-28 0 -28 108q0 14 2.5 45.5t7.5 81.5q5 51 8 65t3 -8q0 29 -51 32q-11 -8 -14 -50q-2 -34 -11 -72t-23 -83q-7 -18 -21 -76q-8 -26 -13 -26q-16 0 -16 72v22q0 14 1 32t1 31v23q0 12 6 32
q7 20 7 26q0 18 -20 18q-19 0 -25 -16q-4 -9 -5 -36l9 -19l-3 -37q-3 -36 0 -80l4 -75q7 -42 38 -42q21 0 31 43q20 81 33.5 129.5t18.5 66.5q3 -67 6 -109.5t7 -62.5q14 -71 51 -71q29 0 77 145q35 108 35 136zM160 514q4 -2 7 -2q13 0 27 19t14 45q0 13 -4 16l-1 -1.5
t-3 -3.5q-23 -38 -34 -38q-4 0 -6 1q-12 3 -21.5 13.5t-17.5 19.5q-35 30 -52 26q-26 -6 -26 -45q0 -18 5 -18q4 0 9 15q6 20 19 20q18 0 38 -27q14 -15 26 -25t20 -15z" />
    <glyph glyph-name="ograve" unicode="&#xf2;" horiz-adv-x="247" 
d="M282 287q0 9 -9 9q-8 0 -12 -18q-13 -64 -21 -79q-17 -39 -52 -39q-11 0 -25 11q0 121 -8 145q-8 23 -37 45q-28 22 -54 22q-27 0 -34 -34q-4 -17 -6 -27t-4 -15q-5 -5 -6 -14v-7q0 -4 1 -11t1 -9q0 -1 0 2q-16 -33 -16 -128q0 -149 73 -149q29 0 49 32q5 8 11.5 24
t14.5 39q4 17 7 31t5 25q30 -12 35 -12q38 0 61 53q26 60 26 104zM131 139q0 -27 -24 -79q-18 -40 -29 -40q-44 0 -44 108q0 42 15 123q16 94 37 94q32 0 32 -35q0 -7 -1.5 -22t-1.5 -22q0 -11 2 -26.5t6 -36.5t6 -37t2 -27zM63 520q5 10 5 14q0 7 -25 31q-10 9 -16 15l-8 8
q-12 19 -33 15q-20 -5 -20 -21q0 -15 28 -31q7 -4 11 -6.5t6 -3.5l46 -27z" />
    <glyph glyph-name="oacute" unicode="&#xf3;" horiz-adv-x="247" 
d="M282 287q0 9 -9 9q-8 0 -12 -18q-13 -64 -21 -79q-17 -39 -52 -39q-11 0 -25 11q0 121 -8 145q-8 23 -37 45q-28 22 -54 22q-27 0 -34 -34q-4 -17 -6 -27t-4 -15q-5 -5 -6 -14v-7q0 -4 1 -11t1 -9q0 -1 0 2q-16 -33 -16 -128q0 -149 73 -149q29 0 49 32q5 8 11.5 24
t14.5 39q4 17 7 31t5 25q30 -12 35 -12q38 0 61 53q26 60 26 104zM131 139q0 -27 -24 -79q-18 -40 -29 -40q-44 0 -44 108q0 42 15 123q16 94 37 94q32 0 32 -35q0 -7 -1.5 -22t-1.5 -22q0 -11 2 -26.5t6 -36.5t6 -37t2 -27zM224 582q0 5 -4 12t-16 9q-22 4 -34 -15
q-9 -8 -15 -14l-9 -9q-25 -24 -25 -31q0 -5 6 -12l5 -8l46 27q7 4 11.5 6t6.5 4q28 16 28 31z" />
    <glyph glyph-name="ocircumflex" unicode="&#xf4;" horiz-adv-x="247" 
d="M282 287q0 9 -9 9q-8 0 -12 -18q-13 -64 -21 -79q-17 -39 -52 -39q-11 0 -25 11q0 121 -8 145q-8 23 -37 45q-28 22 -54 22q-27 0 -34 -34q-4 -17 -6 -27t-4 -15q-5 -5 -6 -14v-7q0 -4 1 -11t1 -9q0 -1 0 2q-16 -33 -16 -128q0 -149 73 -149q29 0 49 32q5 8 11.5 24
t14.5 39q4 17 7 31t5 25q30 -12 35 -12q38 0 61 53q26 60 26 104zM131 139q0 -27 -24 -79q-18 -40 -29 -40q-44 0 -44 108q0 42 15 123q16 94 37 94q32 0 32 -35q0 -7 -1.5 -22t-1.5 -22q0 -11 2 -26.5t6 -36.5t6 -37t2 -27zM195 514q6 5 5 9q-2 16 -27 54q-25 37 -32 36
q-13 0 -41 -27q-29 -27 -32 -41q-2 -9 5 -12q3 -1 7.5 1.5t9.5 7t10 9.5l8 8q16 16 30 16t24 -16q5 -10 9.5 -17.5l7.5 -12.5q10 -15 16 -15z" />
    <glyph glyph-name="otilde" unicode="&#xf5;" horiz-adv-x="247" 
d="M282 287q0 9 -9 9q-8 0 -12 -18q-13 -64 -21 -79q-17 -39 -52 -39q-11 0 -25 11q0 121 -8 145q-8 23 -37 45q-28 22 -54 22q-27 0 -34 -34q-4 -17 -6 -27t-4 -15q-5 -5 -6 -14v-7q0 -4 1 -11t1 -9q0 -1 0 2q-16 -33 -16 -128q0 -149 73 -149q29 0 49 32q5 8 11.5 24
t14.5 39q4 17 7 31t5 25q30 -12 35 -12q38 0 61 53q26 60 26 104zM131 139q0 -27 -24 -79q-18 -40 -29 -40q-44 0 -44 108q0 42 15 123q16 94 37 94q32 0 32 -35q0 -7 -1.5 -22t-1.5 -22q0 -11 2 -26.5t6 -36.5t6 -37t2 -27zM160 514q4 -2 7 -2q13 0 27 19t14 45q0 13 -4 16
l-1 -1.5t-3 -3.5q-23 -38 -34 -38q-4 0 -6 1q-12 3 -21.5 13.5t-17.5 19.5q-35 30 -52 26q-26 -6 -26 -45q0 -18 5 -18q4 0 9 15q6 20 19 20q18 0 38 -27q14 -15 26 -25t20 -15z" />
    <glyph glyph-name="odieresis" unicode="&#xf6;" horiz-adv-x="247" 
d="M282 287q0 9 -9 9q-8 0 -12 -18q-13 -64 -21 -79q-17 -39 -52 -39q-11 0 -25 11q0 121 -8 145q-8 23 -37 45q-28 22 -54 22q-27 0 -34 -34q-4 -17 -6 -27t-4 -15q-5 -5 -6 -14v-7q0 -4 1 -11t1 -9q0 -1 0 2q-16 -33 -16 -128q0 -149 73 -149q29 0 49 32q5 8 11.5 24
t14.5 39q4 17 7 31t5 25q30 -12 35 -12q38 0 61 53q26 60 26 104zM131 139q0 -27 -24 -79q-18 -40 -29 -40q-44 0 -44 108q0 42 15 123q16 94 37 94q32 0 32 -35q0 -7 -1.5 -22t-1.5 -22q0 -11 2 -26.5t6 -36.5t6 -37t2 -27zM162 554q0 37 -34 37q-10 0 -20.5 -11t-10.5 -21
q0 -16 12 -29t28 -13q25 0 25 37zM85 553q0 37 -34 37q-10 0 -20.5 -11t-10.5 -21q0 -16 12 -29t28 -13q25 0 25 37z" />
    <glyph glyph-name="divide" unicode="&#xf7;" horiz-adv-x="600" 
d="M301 408q21 0 37.5 17.5t16.5 38.5q0 22 -16.5 39t-38.5 17t-38.5 -16.5t-16.5 -39.5q0 -22 16.5 -39t39.5 -17zM53 229h494v48h-494v-48zM301 -13q21 0 37.5 17t16.5 38q0 22 -16.5 39t-38.5 17t-38.5 -16.5t-16.5 -39.5q0 -22 16.5 -38.5t39.5 -16.5z" />
    <glyph glyph-name="oslash" unicode="&#xf8;" horiz-adv-x="289" 
d="M164 206q4 -20 5.5 -37t1.5 -30q0 -27 -24 -79q-18 -40 -29 -40q-44 0 -44 108v13zM77 174q2 16 5 35t7 42q16 94 37 94q32 0 32 -35q0 -7 -1.5 -22t-1.5 -22q0 -4 1 -12t3 -20zM-17 105l14 -21l43 32q6 -125 73 -125q29 0 49 32q5 8 11.5 24t14.5 39q4 17 7 31t5 25
q30 -12 35 -12q38 0 61 53q26 60 26 104q0 9 -9 9q-8 0 -12 -18q-13 -64 -21 -79q-17 -39 -52 -39q-11 0 -25 11v33q0 16 -1 30l57 41l-15 21l-43 -31q-1 20 -2 32.5t-3 17.5q-7 23 -38 46q-28 22 -54 22q-27 0 -34 -34q-4 -17 -6 -27t-4 -15q-5 -5 -6 -14v-7q0 -4 1 -11
t1 -9q0 -1 0 2q-14 -32 -16 -121z" />
    <glyph glyph-name="ugrave" unicode="&#xf9;" horiz-adv-x="276" 
d="M194 11q41 0 83 133q34 105 34 140q0 12 -8 12t-12 -15q-24 -89 -36 -132q-31 -106 -58 -106q-29 0 -29 95q0 18 2 41t6 51q5 34 7.5 52.5t2.5 22.5q1 9 6.5 20.5t5.5 16.5q0 16 -29 16q-17 2 -20 -24q1 4 1 -6v-32q0 -8 -1.5 -18.5l-3.5 -24.5q-3 -19 -4.5 -30t-2.5 -13
q-11 -78 -33 -130q-4 -10 -8 -19.5t-9 -19.5q-13 -25 -28 -25q-19 0 -19 44q0 54 3.5 100.5t10.5 85.5q1 2 2.5 7.5t3.5 15.5q4 13 4 23t-8 18.5t-18 8.5q-12 0 -17 -8q-7 -11 -11 -113q-2 -41 -3 -71.5t-1 -51.5q0 -29 12 -54q15 -30 41 -30q29 0 47 31q8 20 16 38.5
t15 35.5q14 -46 18 -52q16 -33 38 -33zM63 520q5 10 5 14q0 7 -25 31q-10 9 -16 15l-8 8q-12 19 -33 15q-20 -5 -20 -21q0 -15 28 -31q7 -4 11 -6.5t6 -3.5l46 -27z" />
    <glyph glyph-name="uacute" unicode="&#xfa;" horiz-adv-x="276" 
d="M194 11q41 0 83 133q34 105 34 140q0 12 -8 12t-12 -15q-24 -89 -36 -132q-31 -106 -58 -106q-29 0 -29 95q0 18 2 41t6 51q5 34 7.5 52.5t2.5 22.5q1 9 6.5 20.5t5.5 16.5q0 16 -29 16q-17 2 -20 -24q1 4 1 -6v-32q0 -8 -1.5 -18.5l-3.5 -24.5q-3 -19 -4.5 -30t-2.5 -13
q-11 -78 -33 -130q-4 -10 -8 -19.5t-9 -19.5q-13 -25 -28 -25q-19 0 -19 44q0 54 3.5 100.5t10.5 85.5q1 2 2.5 7.5t3.5 15.5q4 13 4 23t-8 18.5t-18 8.5q-12 0 -17 -8q-7 -11 -11 -113q-2 -41 -3 -71.5t-1 -51.5q0 -29 12 -54q15 -30 41 -30q29 0 47 31q8 20 16 38.5
t15 35.5q14 -46 18 -52q16 -33 38 -33zM224 582q0 5 -4 12t-16 9q-22 4 -34 -15q-9 -8 -15 -14l-9 -9q-25 -24 -25 -31q0 -5 6 -12l5 -8l46 27q7 4 11.5 6t6.5 4q28 16 28 31z" />
    <glyph glyph-name="ucircumflex" unicode="&#xfb;" horiz-adv-x="276" 
d="M194 11q41 0 83 133q34 105 34 140q0 12 -8 12t-12 -15q-24 -89 -36 -132q-31 -106 -58 -106q-29 0 -29 95q0 18 2 41t6 51q5 34 7.5 52.5t2.5 22.5q1 9 6.5 20.5t5.5 16.5q0 16 -29 16q-17 2 -20 -24q1 4 1 -6v-32q0 -8 -1.5 -18.5l-3.5 -24.5q-3 -19 -4.5 -30t-2.5 -13
q-11 -78 -33 -130q-4 -10 -8 -19.5t-9 -19.5q-13 -25 -28 -25q-19 0 -19 44q0 54 3.5 100.5t10.5 85.5q1 2 2.5 7.5t3.5 15.5q4 13 4 23t-8 18.5t-18 8.5q-12 0 -17 -8q-7 -11 -11 -113q-2 -41 -3 -71.5t-1 -51.5q0 -29 12 -54q15 -30 41 -30q29 0 47 31q8 20 16 38.5
t15 35.5q14 -46 18 -52q16 -33 38 -33zM185 514q6 5 5 9q-2 16 -27 54q-25 37 -32 36q-13 0 -41 -27q-29 -27 -32 -41q-2 -9 5 -12q3 -1 7.5 1.5t9.5 7t10 9.5l8 8q16 16 30 16t24 -16q5 -10 9.5 -17.5l7.5 -12.5q10 -15 16 -15z" />
    <glyph glyph-name="udieresis" unicode="&#xfc;" horiz-adv-x="276" 
d="M194 11q41 0 83 133q34 105 34 140q0 12 -8 12t-12 -15q-24 -89 -36 -132q-31 -106 -58 -106q-29 0 -29 95q0 18 2 41t6 51q5 34 7.5 52.5t2.5 22.5q1 9 6.5 20.5t5.5 16.5q0 16 -29 16q-17 2 -20 -24q1 4 1 -6v-32q0 -8 -1.5 -18.5l-3.5 -24.5q-3 -19 -4.5 -30t-2.5 -13
q-11 -78 -33 -130q-4 -10 -8 -19.5t-9 -19.5q-13 -25 -28 -25q-19 0 -19 44q0 54 3.5 100.5t10.5 85.5q1 2 2.5 7.5t3.5 15.5q4 13 4 23t-8 18.5t-18 8.5q-12 0 -17 -8q-7 -11 -11 -113q-2 -41 -3 -71.5t-1 -51.5q0 -29 12 -54q15 -30 41 -30q29 0 47 31q8 20 16 38.5
t15 35.5q14 -46 18 -52q16 -33 38 -33zM162 554q0 37 -34 37q-10 0 -20.5 -11t-10.5 -21q0 -16 12 -29t28 -13q25 0 25 37zM85 553q0 37 -34 37q-10 0 -20.5 -11t-10.5 -21q0 -16 12 -29t28 -13q25 0 25 37z" />
    <glyph glyph-name="ydieresis" unicode="&#xff;" horiz-adv-x="240" 
d="M292 -91q3 4 3 9q0 23 -44 23q-13 0 -45 -8q-14 -4 -24 -6.5t-15 -3.5l-2 44q-3 61 -3 90q-1 84 1 134t7 69q21 75 21 98q0 14 -16 13q-24 -1 -27 -26q-8 -67 -14 -112t-9 -70q-39 -150 -65 -150t-26 81q0 21 2 51t6 70l11 102q2 14 -15 14q-19 0 -26 -45l-2 -30t-2 -29
q-9 -93 -9 -142q0 -35 13 -61q16 -33 48 -33q24 0 41 32q9 19 15.5 33t10.5 24q15 -60 15 -167q-65 -14 -136 -64q-90 -65 -90 -138q0 -24 8.5 -45t23.5 -36.5t35.5 -24.5t44.5 -9q147 0 147 229q0 6 -0.5 16.5t-1 21.5t-1 21.5t-0.5 16.5q45 15 61 15q7 0 21.5 -1.5
t37.5 -5.5zM145 -109v-72q0 -71 -27 -129q-34 -73 -99 -73q-15 0 -28.5 7t-23.5 19t-15.5 27t-5.5 31q0 56 52 107q59 59 147 83zM-79 24q-5 -2 -11 -5.5t-6 -11.5q0 -9 23 -9q25 0 69 131q39 121 39 152q0 15 -8 15t-14 -23q-10 -42 -20 -79t-21 -69q-33 -101 -51 -101z
M162 554q0 37 -34 37q-10 0 -20.5 -11t-10.5 -21q0 -16 12 -29t28 -13q25 0 25 37zM85 553q0 37 -34 37q-10 0 -20.5 -11t-10.5 -21q0 -16 12 -29t28 -13q25 0 25 37z" />
    <glyph glyph-name="germandbls" unicode="&#xdf;" horiz-adv-x="201" 
d="M123 372q79 127 79 222q1 15 -2 30t-10.5 27.5t-19 21t-26.5 8.5q-49 0 -82 -119q-13 -48 -23 -105.5t-18 -126.5l-21 -234q-1 -23 -3 -41q-17 -208 -25.5 -310.5t-8.5 -101.5q1 -7 26 -7q2 0 19 186q4 49 8 97t9 96q1 10 1.5 17t0.5 12q13 244 57 468q3 16 9 33t14 37
q21 49 39 49t25 -22q2 -10 2 -21q0 -85 -63 -184q-37 -58 -37 -84q0 -21 18 -55q15 -25 29 -52q-47 -71 -47 -134q0 -18 4 -30q5 -23 21 -42.5t34 -19.5t36 21q15 20 21 41q9 30 -2 76q-8 34 -33 75q5 11 6.5 14.5t7.5 8.5q4 2 13 1q18 0 17 -1q8 2 7 4q-3 10 -14 15
q-8 4 -27 0q-19 -3 -29 -9q-28 49 -32 69q-2 8 -2 13q0 23 22 57zM134 182q25 -51 29 -72q3 -14 3 -31q0 -69 -32 -69q-23 0 -37 59q-2 10 -2 17q0 55 39 96z" />
    <glyph glyph-name="periodcentered" unicode="&#xb7;" horiz-adv-x="246" 
d="M132 220q2 -2 14 -2q1 1 2.5 3.5t3.5 6.5q-4 4 -4 8l6 44q-11 6 -18 6q-11 8 -18 8q-2 -2 -4 -2t-4 2q-3 3 -14 -2q-2 -10 -3 -18.5t-1 -15.5q1 -2 3.5 -4t2.5 -4q0 -4 -6 -4v-16q2 -2 6.5 -2.5t5.5 -1.5l4 -4z" />
    <glyph glyph-name="macron" unicode="&#xaf;" horiz-adv-x="114" 
d="M-39 458q23 1 40.5 1.5t28.5 0.5l8 7l8 -6q4 -1 10 -1q5 0 7 2q9 8 14 -3l1 -1q5 2 9.5 2.5t7.5 1.5q7 4 11 -2l1 -2h3t9 -1h10v10l25 29v5q-2 2 -5 2q-3 -5 -9 -5q-5 0 -8 4q-6 0 -11 1h-10q-11 0 -19 -8q-6 7 -16 7l-9 -11l-6 11q-7 0 -12 -8q-5 0 -10 2.5l-5 2.5h-54
l-2 -1l-3 -3q-5 -5 -3 -9q-1 -7 -6 -16.5t-4 -12.5z" />
    <glyph glyph-name="macron" unicode="&#x2c9;" horiz-adv-x="114" 
d="M-39 458q23 1 40.5 1.5t28.5 0.5l8 7l8 -6q4 -1 10 -1q5 0 7 2q9 8 14 -3l1 -1q5 2 9.5 2.5t7.5 1.5q7 4 11 -2l1 -2h3t9 -1h10v10l25 29v5q-2 2 -5 2q-3 -5 -9 -5q-5 0 -8 4q-6 0 -11 1h-10q-11 0 -19 -8q-6 7 -16 7l-9 -11l-6 11q-7 0 -12 -8q-5 0 -10 2.5l-5 2.5h-54
l-2 -1l-3 -3q-5 -5 -3 -9q-1 -7 -6 -16.5t-4 -12.5z" />
    <glyph glyph-name="mu" unicode="&#xb5;" horiz-adv-x="298" 
d="M240 206q29 53 29 71q0 15 -13 15q-27 0 -52 -76q-12 -37 -48 -91q-42 -64 -67 -64q-21 0 -21 23q0 32 27 85q25 38 43.5 65.5t32.5 44.5q7 8 7 13q0 11 -13 11q-30 0 -81 -82q-44 -70 -64 -146q-18 -72 -31 -153t-21 -172q-2 -20 14 -20q12 0 17 36q13 112 14 113
q13 82 36 156q17 -17 26 -17q31 0 72 56q10 13 17.5 23.5t13.5 18.5q2 -21 3 -33.5t2 -17.5q3 -18 9 -28q18 -37 52 -37q22 0 22 16q0 10 -18 21q-38 21 -38 76q0 36 30 93z" />
    <glyph glyph-name="mu" unicode="&#x3bc;" horiz-adv-x="298" 
d="M240 206q29 53 29 71q0 15 -13 15q-27 0 -52 -76q-12 -37 -48 -91q-42 -64 -67 -64q-21 0 -21 23q0 32 27 85q25 38 43.5 65.5t32.5 44.5q7 8 7 13q0 11 -13 11q-30 0 -81 -82q-44 -70 -64 -146q-18 -72 -31 -153t-21 -172q-2 -20 14 -20q12 0 17 36q13 112 14 113
q13 82 36 156q17 -17 26 -17q31 0 72 56q10 13 17.5 23.5t13.5 18.5q2 -21 3 -33.5t2 -17.5q3 -18 9 -28q18 -37 52 -37q22 0 22 16q0 10 -18 21q-38 21 -38 76q0 36 30 93z" />
    <glyph glyph-name="Scaron" unicode="&#x160;" horiz-adv-x="429" 
d="M401 63q0 60 -81 95l-179 75q-30 12 -48.5 41.5t-18.5 62.5q0 63 46 176q52 130 101 130q34 0 61 -41q23 -34 28 -72q9 -87 9 -159q0 -34 23 -34q22 0 22 60q0 31 -1.5 62.5t-3.5 65.5q-4 58 -55 104q-49 46 -108 46q-51 0 -92 -80q-83 -168 -83 -258t69 -120l230 -99
q28 -12 28 -48q0 -62 -108 -62q-76 0 -161 21q-62 15 -67 20l-17.5 17.5t-9.5 8.5q-11 -5 -11 -15q0 -17 23 -29q113 -59 256 -59q52 0 95 20q53 24 53 71zM176 869q-7 -3 -5 -8q2 -18 26 -54q25 -37 33 -37q12 0 41 27q29 28 32 42q2 9 -5 12q-5 2 -17 -10
q-6 -5 -10.5 -9.5l-6.5 -6.5q-19 -17 -30 -17q-7 0 -13.5 5t-11.5 12.5t-9.5 15.5t-7.5 14q-11 15 -16 14z" />
    <glyph glyph-name="scaron" unicode="&#x161;" horiz-adv-x="165" 
d="M110 82q0 37 -25 113q-24 79 -24 117q0 5 1.5 12.5t3.5 15.5t3.5 15t1.5 10q0 19 -29 19q-26 0 -26 -27q0 -66 -41 -221q6 -2 8 -2q16 0 26 34q8 29 14.5 50.5t10.5 35.5q10 -27 21 -63q20 -71 20 -105q0 -78 -46 -78q-20 0 -37 38q0 16 -7 16q-8 -2 -8 -21q0 -16 16 -32
q22 -25 52 -25q33 0 51 34q14 30 14 64zM5 612q-5 -3 -5 -8q2 -18 26 -54q25 -37 33 -37q12 0 41 27q29 28 32 42q2 9 -5 12q-5 2 -17 -10q-6 -5 -10.5 -9.5l-6.5 -6.5q-19 -17 -30 -17q-7 0 -13.5 5t-11.5 12.5t-9.5 15.5t-7.5 14q-11 15 -16 14z" />
    <glyph glyph-name="brokenbar" unicode="&#xa6;" horiz-adv-x="222" 
d="M87 331h48v344h-48v-344zM87 -174h48v343h-48v-343z" />
    <glyph glyph-name="twosuperior" unicode="&#xb2;" horiz-adv-x="302" 
d="M206 418q105 75 105 121q0 22 -19.5 37t-50.5 15q-56 0 -106 -43q-41 -35 -41 -46h4q3 0 10 5q40 33 83 33q49 0 51 -41q-5 -45 -104 -125q-26 -22 -49 -41.5t-42 -38.5l4 -4q35 25 78 25q19 0 48 -3.5t70 -10.5l54 46l-4 5q-29 4 -48.5 5.5t-30.5 1.5q-32 0 -102 -14
q26 23 48 41t42 32z" />
    <glyph glyph-name="threesuperior" unicode="&#xb3;" horiz-adv-x="302" 
d="M189 448q100 52 100 95q0 21 -19 36t-47 15q-55 0 -104 -54l2 -2q37 26 60 26t38.5 -14t15.5 -35q0 -25 -20 -43q-27 -26 -80 -24q-13 -15 -35 -33l2 -2q32 8 50 8q32 0 52.5 -14.5t20.5 -38.5q0 -27 -30 -54q-29 -26 -57 -26q-21 0 -37 16q-17 -11 -38 -29q1 -16 23 -16
h12q51 3 82 37q101 47 101 109q0 46 -58 46q-1 0 -34 -3z" />
    <glyph glyph-name="onesuperior" unicode="&#xb9;" horiz-adv-x="302" 
d="M202 310q15 123 54 273l-7 7q-45 -32 -78 -55.5t-55 -37.5l-16 -11l6 -8l88 59l-63 -265l4 -2q8 9 25 19t42 21z" />
    <glyph glyph-name="onequarter" unicode="&#xbc;" horiz-adv-x="490" 
d="M185 280q8 40 18.5 85t24.5 97l-5 3q-23 -17 -51.5 -33.5t-61.5 -33.5l3 -9l66 36l-47 -174q10 7 23 14t30 15zM57 -8l402 454l-14 11l-401 -454zM389 55l31 24h-62l25 125l-3 1l-13 -10q-129 -103 -151 -135l2 -5h100l-17 -68q25 14 43 21l9 47h36zM257 84q7 10 28 30
t58 51l-18 -88h-61z" />
    <glyph glyph-name="onehalf" unicode="&#xbd;" horiz-adv-x="490" 
d="M188 280q6 38 16 83t24 99l-4 3q-29 -19 -50 -31.5t-33 -19.5l-37 -22l4 -7l66 36l-42 -177h1zM55 -8l405 451l-13 12l-404 -452zM335 72q83 54 83 83q0 17 -17 28t-43 11q-40 0 -95 -48l2 -2q30 15 61 15q45 0 45 -25q0 -18 -63 -66q-20 -14 -39 -28l-38 -28l-16 -12
l3 -4q55 11 93 11q17 0 34 -1.5t34 -5.5l31 33l-2 4q-21 1 -32 1.5t-13 0.5q-43 0 -100 -16q26 19 44 31t28 18z" />
    <glyph glyph-name="threequarters" unicode="&#xbe;" horiz-adv-x="490" 
d="M168 371q77 41 77 65q0 29 -53 29q-14 0 -39 -6l-43 -32l4 -5q33 13 57 13q29 0 29 -22q0 -35 -69 -42l-26 -21l2 -4q10 2 17 2.5t12 1.5q51 -2 51 -36q0 -32 -42 -32q-17 0 -39 9q-14 -5 -28 -19q7 -10 28 -10q42 0 80 24q39 24 39 50t-57 35zM54 -8l404 454l-14 12
l-404 -454zM381 45l34 23h-64l29 126l-5 3q-49 -38 -85.5 -68.5t-61.5 -53.5l-13 -13t-11 -13l2 -5h104l-16 -66l2 -1q11 7 21 12.5t21 9.5l8 46h35zM314 135q8 6 13 10.5t9 7.5l-20 -86h-65l-4 10q8 9 25 23.5t42 34.5z" />
    <glyph glyph-name="multiply" unicode="&#xd7;" horiz-adv-x="600" 
d="M491 23l34 35l-192 195l192 195l-34 35l-192 -196l-190 196l-34 -35l191 -195l-191 -195l34 -35l190 196z" />
    <glyph glyph-name="Yacute" unicode="&#xdd;" horiz-adv-x="402" 
d="M389 636q-1 24 -34 25q-27 1 -28 -18q-5 -96 -12.5 -177t-15.5 -150q-14 -108 -58 -195q-50 -99 -105 -99q-81 0 -81 177q0 78 7.5 159.5t21.5 169.5q1 3 2.5 10.5t5.5 19.5q5 22 5 28q-41 34 -49 34q-18 0 -18 -31q0 -6 1 -19t1 -19q0 -59 -12 -177q-5 -60 -8 -104
t-3 -73q0 -81 27 -133q34 -66 109 -66q59 0 103 78q17 30 51 130q4 -54 5.5 -93.5t1.5 -65.5q0 -291 -175 -291q-39 0 -97 46t-67 46q-26 0 -26 -18q0 -32 99 -69q88 -32 128 -32q79 0 135 83q49 74 49 158q0 42 -6 128q-2 43 -3.5 75t-1.5 54q0 77 4 141t12 118
q4 26 12 63.5t20 86.5zM318 838q0 5 -4 12t-16 9q-22 4 -34 -15q-9 -8 -15 -14l-9 -9q-25 -24 -25 -31q0 -5 6 -12l5 -8l46 27q7 4 11.5 6t6.5 4q28 16 28 31z" />
    <glyph glyph-name="Thorn" unicode="&#xde;" horiz-adv-x="165" 
d="M111 82q0 38 -25 114q-24 78 -24 116q0 5 1.5 12.5t3.5 15.5t3.5 15t1.5 10q0 19 -30 19q-17 0 -21 -9q-3 -19 -4.5 -34t-0.5 -28q-5 -53 -15.5 -112.5t-27.5 -127.5q-6 -26 -18 -57q-10 -24 -10 -31q0 -6 5 -6q8 0 18 19t13 19q1 0 21 -17q19 -16 44 -16q33 0 51 34
q14 30 14 64zM76 86q0 -78 -46 -78q-13 0 -28 20q-15 19 -15 33q15 57 27 105t21 88q9 -20 21 -61q20 -75 20 -107z" />
    <glyph glyph-name="eth" unicode="&#xf0;" horiz-adv-x="199" 
d="M102 -14q46 0 92 139q40 117 40 156q0 15 -9 15t-13 -21q-5 -19 -8.5 -33t-5.5 -24q-57 -198 -94 -198q-17 0 -38 25q-20 26 -20 44q21 40 24 50q17 36 31 75.5t25 83.5q36 145 36 297q0 87 -65 87q-29 0 -34 -68q-26 -77 -44 -219q-8 -66 -12 -121t-4 -103q0 -43 10 -82
q-1 -2 -4 -7t-9 -13q-13 -16 -13 -26q0 -6 8 -6q4 0 26 17q44 -68 81 -68zM116 645q16 -16 16 -91q0 -108 -22 -214q-26 -119 -69 -203q-4 22 -5.5 39t-1.5 29q0 70 19 183q22 141 63 257z" />
    <glyph glyph-name="yacute" unicode="&#xfd;" horiz-adv-x="240" 
d="M292 -91q3 4 3 9q0 23 -44 23q-13 0 -45 -8q-14 -4 -24 -6.5t-15 -3.5l-2 44q-3 61 -3 90q-1 84 1 134t7 69q21 75 21 98q0 14 -16 13q-24 -1 -27 -26q-8 -67 -14 -112t-9 -70q-39 -150 -65 -150t-26 81q0 21 2 51t6 70l11 102q2 14 -15 14q-19 0 -26 -45l-2 -30t-2 -29
q-9 -93 -9 -142q0 -35 13 -61q16 -33 48 -33q24 0 41 32q9 19 15.5 33t10.5 24q15 -60 15 -167q-65 -14 -136 -64q-90 -65 -90 -138q0 -24 8.5 -45t23.5 -36.5t35.5 -24.5t44.5 -9q147 0 147 229q0 6 -0.5 16.5t-1 21.5t-1 21.5t-0.5 16.5q45 15 61 15q7 0 21.5 -1.5
t37.5 -5.5zM145 -109v-72q0 -71 -27 -129q-34 -73 -99 -73q-15 0 -28.5 7t-23.5 19t-15.5 27t-5.5 31q0 56 52 107q59 59 147 83zM-79 24q-5 -2 -11 -5.5t-6 -11.5q0 -9 23 -9q25 0 69 131q39 121 39 152q0 15 -8 15t-14 -23q-10 -42 -20 -79t-21 -69q-33 -101 -51 -101z
M224 582q0 5 -4 12t-16 9q-22 4 -34 -15q-9 -8 -15 -14l-9 -9q-25 -24 -25 -31q0 -5 6 -12l5 -8l46 27q7 4 11.5 6t6.5 4q28 16 28 31z" />
    <glyph glyph-name="thorn" unicode="&#xfe;" horiz-adv-x="357" 
d="M304 257q2 19 3.5 26t1.5 2q0 11 -10 11q-16 0 -11 -42q-4 -24 -14 -60.5t-27 -87.5q-28 -82 -44 -82q-28 0 -28 53l3 9q-2 32 6 91q4 32 5.5 54.5t1.5 36.5q0 28 -43 50q-42 22 -42 33q0 9 1.5 27.5t1.5 27.5q0 39 -21 39q-25 0 -25 -50q0 -24 16 -63q-20 -196 -42 -302
q-1 -5 -7.5 -20t-6.5 -23q0 -13 19 -12q17 85 31 159t24 139q0 27 -1 24q1 15 13 15q9 0 41 -32l-2 -207q0 -24 17 -50q18 -25 40 -25q31 0 61 88q13 37 22 79.5t16 91.5z" />
    <glyph glyph-name="Zcaron" unicode="&#x17d;" horiz-adv-x="466" 
d="M470 546q0 34 -25.5 55t-59.5 21q-23 0 -72.5 -7t-124.5 -21q-77 -15 -107 -24q-51 -17 -51 -42q0 -16 23 -16q-1 16 31 25q129 36 258 36q36 0 36 -13q0 -11 -82 -105l-153 -174q-26 -29 -52.5 -64t-53.5 -75q-59 -89 -59 -116q0 -22 12 -37q12 -19 33 -19q14 0 52 11
q19 5 32 8.5t21 4.5l101 15q35 5 62.5 8t47.5 3q6 0 15 -1t18.5 -2.5t18.5 -2.5t15 -1q25 0 25 16q0 13 -62 21q-44 6 -81 6q-20 0 -48.5 -3t-66.5 -10q-75 -12 -107 -12q-38 0 -38 12q0 16 60 99q53 71 78 98q234 255 262 269l6 3q36 18 36 34zM176 869q-7 -3 -5 -8
q2 -18 26 -54q25 -37 33 -37q12 0 41 27q29 28 32 42q2 9 -5 12q-5 2 -17 -10q-6 -5 -10.5 -9.5l-6.5 -6.5q-19 -17 -30 -17q-7 0 -13.5 5t-11.5 12.5t-9.5 15.5t-7.5 14q-11 15 -16 14z" />
    <glyph glyph-name="zcaron" unicode="&#x17e;" horiz-adv-x="274" 
d="M283 -68q9 4 9 13q0 19 -36 19q-33 0 -76 -9q-16 36 -31 53q-14 15 -50 35q90 115 90 260q0 45 -24 74.5t-66 29.5q-38 0 -65 -63q-20 -48 -20 -75q0 -16 12 -16q4 0 9 30t25 58q25 33 53 33q44 0 44 -69q0 -89 -25 -148q-19 -46 -69 -103q-51 1 -51 -25q0 -25 35 -25
q15 0 41 23q49 -27 61 -79q-212 -92 -212 -210q0 -48 37 -81q37 -34 86 -34q68 0 106 83q30 64 30 141q0 4 -2.5 25.5t-7.5 61.5q22 6 45 6q25 0 52 -8zM169 -147q0 -69 -26 -129q-33 -75 -96 -75q-33 0 -52 21.5t-19 54.5q0 66 60 128q58 58 125 73q4 -17 6 -35t2 -38z
M51 613q-7 -3 -5 -8q2 -18 26 -54q25 -37 33 -37q12 0 41 27q29 28 32 42q2 9 -5 12q-5 2 -17 -10q-6 -5 -10.5 -9.5l-6.5 -6.5q-19 -17 -30 -17q-7 0 -13.5 5t-11.5 12.5t-9.5 15.5t-7.5 14q-11 15 -16 14z" />
    <glyph glyph-name="Eth" unicode="&#xd0;" horiz-adv-x="201" 
d="M123 372q79 127 79 222q1 15 -2 30t-10.5 27.5t-19 21t-26.5 8.5q-49 0 -82 -119q-13 -48 -23 -105.5t-18 -126.5l-21 -234q-1 -23 -3 -41q-3 -28 0 -38q3 -16 17 -16q12 0 13 43q13 244 57 468q3 16 9 33t14 37q21 49 39 49t25 -22q2 -10 2 -21q0 -85 -63 -184
q-37 -58 -37 -84q0 -21 18 -55q15 -25 29 -52q-47 -71 -47 -134q0 -18 4 -30q5 -23 21 -42.5t34 -19.5t36 21q15 20 21 41q9 30 -2 76q-8 34 -33 75q5 11 6.5 14.5t7.5 8.5q4 2 13 1q18 0 17 -1q8 2 7 4q-3 10 -14 15q-8 4 -27 0q-19 -3 -29 -9q-28 49 -32 69q-2 8 -2 13
q0 23 22 57zM134 182q25 -51 29 -72q3 -14 3 -31q0 -69 -32 -69q-23 0 -37 59q-2 10 -2 17q0 55 39 96z" />
  </font>
</defs>
</svg>
